<svg version="1.1" xmlns="http://www.w3.org/2000/svg" viewBox="0 0 117.7028646903268 219.38594267659118" width="235.4057293806536" height="438.77188535318237">
  <!-- svg-source:excalidraw -->
  
  <defs>
    <style class="style-fonts">
      
    </style>
    
  </defs>
  <rect x="0" y="0" width="117.7028646903268" height="219.38594267659118" fill="#ffffff"></rect><g stroke-opacity="0.8" fill-opacity="0.8" stroke-linecap="round" transform="translate(16.825724756757154 10) rotate(0 37.5 35.416666666666515)"><path d="M18.23 5.25 C18.23 5.25, 18.23 5.25, 18.23 5.25 M18.23 5.25 C18.23 5.25, 18.23 5.25, 18.23 5.25 M13.32 27.86 C17.27 16.65, 20.54 11.03, 27.56 4.8 M9.36 27.44 C15.87 17.08, 23.95 12.08, 31.15 2.11 M1.28 46.46 C9.1 36.87, 21.01 24.44, 45.42 -1.58 M4.73 47 C13.54 31.68, 27.17 17.31, 41.09 2.78 M6.63 51.92 C17.65 39.83, 31.81 25.77, 48.88 2.03 M10.12 53.16 C15.48 44.08, 27.42 35.15, 52.2 3.68 M9.79 60.55 C28.07 39.9, 45.26 19.62, 61.24 11.26 M14.82 58.99 C28.69 41.3, 45.47 25.21, 57.7 7.4 M16.19 66.24 C30.38 51.01, 49.31 28.67, 65.35 10.99 M19.04 66.46 C29.83 55.93, 41.78 40.52, 64.83 12.56 M26.74 71.6 C32.73 58.15, 41.49 45.9, 71.33 19.83 M24.96 69.08 C44.14 47.63, 61.93 30.59, 71.03 17.83 M37.61 73 C45.52 59.91, 60.36 36.74, 74.05 27.33 M32.94 72.38 C47.51 55.89, 62.83 42.06, 73.98 26.6 M40.5 75.76 C57.92 60.64, 61.87 47.25, 82.96 29.27 M42.37 76.65 C50.84 66.94, 59.76 56.91, 81.85 29.8" stroke="#ffffff" stroke-width="1" fill="none"></path><path d="M41.07 -0.48 C47.95 -0.6, 56.31 4.43, 62.05 9.1 C67.8 13.77, 73.78 21.23, 75.55 27.53 C77.31 33.83, 75.9 40.56, 72.64 46.89 C69.38 53.23, 62.08 61.55, 55.98 65.53 C49.87 69.5, 43.12 71.54, 36 70.75 C28.88 69.95, 19.32 65.06, 13.28 60.76 C7.23 56.45, 1.28 51.37, -0.28 44.93 C-1.83 38.5, 0.91 28.71, 3.97 22.13 C7.02 15.55, 8.48 7.76, 18.05 5.45 C27.62 3.14, 51.78 3.89, 61.4 8.28 C71.02 12.67, 75.61 31.31, 75.78 31.8 M67.21 16.08 C70.78 21.83, 73.53 32.08, 73.43 38.56 C73.33 45.04, 70.79 49.36, 66.59 54.96 C62.39 60.56, 55.18 70.16, 48.23 72.16 C41.28 74.15, 32.18 69.89, 24.9 66.92 C17.62 63.96, 8.97 59.76, 4.57 54.36 C0.17 48.95, -1.72 41.05, -1.5 34.49 C-1.29 27.93, 0.59 20.26, 5.88 14.99 C11.16 9.71, 22.89 4.99, 30.21 2.84 C37.52 0.7, 43.52 -0.57, 49.77 2.12 C56.03 4.82, 65 16.37, 67.73 19.01 C70.47 21.64, 66.8 17.99, 66.21 17.92" stroke="#000000" stroke-width="2" fill="none"></path></g><g stroke-linecap="round"><g stroke-opacity="0.8" fill-opacity="0.8" transform="translate(39.742391423423214 80.83333333333394) rotate(0 21.61788755093471 28.428002989955985)" fill-rule="evenodd"><path d="M0 0 C0 0, 0 0, 0 0 M0 0 C0 0, 0 0, 0 0 M-1.53 13.17 C0.13 11.13, 7.92 7.81, 9.25 -0.33 M0.83 11.14 C2.83 10.44, 6.68 6.02, 11.87 -1.63 M2.64 21.26 C8.04 18.19, 13.2 12.33, 21.14 5.99 M1.06 24.53 C7.55 17.6, 12.4 11.27, 20.64 3.94 M-1.89 35.55 C7.67 26.06, 22.69 8.5, 37.24 -4.06 M1.4 36.1 C11.73 23.74, 20.92 11.08, 33.63 -3.86 M0.2 45.9 C14.21 33.43, 23.86 22.54, 45.57 4.57 M-1.57 49.19 C10.31 37.65, 23.19 24.22, 43.23 -0.13 M1.7 60.05 C10.08 45.14, 20.13 35.32, 41.74 13.62 M1.55 62.82 C14.89 45.39, 27.45 32.89, 45.25 7.78 M9.59 59.97 C24.43 52.11, 34.54 33.14, 47.23 23.54 M10.81 63 C19.04 50.4, 29.92 39.62, 46.32 19.57 M18.94 62.19 C27.45 52.95, 33.13 40.86, 41.08 34.01 M19.3 62.65 C27.39 53.53, 35.32 41.58, 44.07 33.97 M29.14 58.18 C37.36 57.11, 43.37 47.99, 46.55 44.95 M33.4 61.05 C36.07 56.35, 39.8 54.36, 42.74 48.78" stroke="#ffffff" stroke-width="1" fill="none"></path><path d="M0.2 1.49 C0.09 7.4, 2.25 25.76, 2.08 35.67 C1.91 45.59, -6.94 56.69, -0.8 60.98 C5.34 65.26, 31.44 67.56, 38.92 61.38 C46.41 55.19, 44.8 35, 44.11 23.86 C43.42 12.73, 39.37 -1.71, 34.78 -5.44 C30.2 -9.16, 22.39 0.63, 16.6 1.52 C10.8 2.41, 3.18 0.48, 0 -0.1 M-3.14 -0.18 C-3.68 4.88, 0.91 20.58, 0.93 31.34 C0.94 42.1, -9.57 60.18, -3.05 64.39 C3.48 68.6, 32.73 63.15, 40.09 56.59 C47.45 50.04, 41.68 34.56, 41.11 25.09 C40.55 15.61, 40.54 4.04, 36.71 -0.27 C32.88 -4.58, 24.67 -0.65, 18.15 -0.76 C11.63 -0.88, 0.46 -1.48, -2.41 -0.95" stroke="#000000" stroke-width="2" fill="none"></path></g></g><mask></mask><g stroke-linecap="round"><g stroke-opacity="0.8" fill-opacity="0.8" transform="translate(40.67471640181611 143.14925073272843) rotate(0 -14.24607748723065 31.911213571397184)"><path d="M1.77 -1.15 C0.89 19.42, 2.86 36.98, -0.92 54.43 M0 -0.07 C-2.13 12.19, 0.24 28.32, -1.67 58.49 M1.85 59.06 C-6.85 57.21, -14.17 64.26, -30.67 61.4 M-1.68 56.22 C-8.88 61.67, -16.9 60.68, -29.43 63.66" stroke="#000000" stroke-width="2" fill="none"></path></g></g><mask></mask><g stroke-linecap="round"><g stroke-opacity="0.8" fill-opacity="0.8" transform="translate(79.42404716708461 139.730192135793) rotate(0 14.246077487230878 34.475507519098755)"><path d="M0.8 1.55 C4.26 24.12, 2.19 42.04, -1.54 61.63 M-1.75 -1.37 C1.42 23.3, 0.86 44.55, 1.24 59.55 M4.28 59.29 C11.39 66.15, 11.34 62.31, 28.28 66.94 M1.91 63.21 C11.05 63.56, 18.73 66.92, 27.45 69.66" stroke="#000000" stroke-width="2" fill="none"></path></g></g><mask></mask><g stroke-linecap="round"><g stroke-opacity="0.8" fill-opacity="0.8" transform="translate(81.13357646555232 79.896666689423) rotate(0 5.413509445147838 11.681783539529533)"><path d="M3.29 1.25 C5.46 8.86, 6.48 25.32, 18.88 46.73 M1.01 1.21 C4.12 14.45, 9.08 25.95, 15 48.51 M20.52 49.8 C13.61 25.52, 15.77 7.14, 18.64 -11.35 M17.17 45.72 C15.25 34.65, 15.27 23.6, 15.38 -10.09 M16.86 -12.48 C15.68 -16.31, 10.81 -18.89, 7.76 -17.26 M15.85 -11.79 C12.22 -15.25, 10.36 -18.29, 8.12 -19.46 M10.11 -19.23 C1.75 -18.01, -1.25 -21.46, -4.32 -22.59 M8.65 -19.1 C3.25 -21.24, -2.44 -21.68, -7.66 -22.44" stroke="#000000" stroke-width="2" fill="none"></path></g></g><mask></mask><g stroke-linecap="round"><g stroke-opacity="0.8" fill-opacity="0.8" transform="translate(97.08918325125069 74.76807879401986) rotate(0 -5.413509445147838 -2.564293947701117)"><path d="M0.24 -1.11 C-4.51 -1.68, -6.67 -3.44, -10.87 -6.18 M0.01 0.11 C-2.5 -1.72, -5.49 -1.77, -10.69 -4.66" stroke="#000000" stroke-width="2" fill="none"></path></g></g><mask></mask><g stroke-linecap="round"><g stroke-opacity="0.8" fill-opacity="0.8" transform="translate(34.40644230743601 78.18713739095529) rotate(0 -7.97780339284941 44.447761760160574)"><path d="M-2.68 0.09 C-2.75 14.06, -10.54 24.89, -18.7 45.32 M0.1 -1.99 C-7.26 17.46, -11.02 32.86, -17.08 45.31 M-16.17 41.3 C-12.98 60.6, -16.39 79.27, -7.5 90.19 M-17 44.01 C-16.82 56.01, -12.3 67.19, -11.69 88.71" stroke="#000000" stroke-width="2" fill="none"></path></g></g><mask></mask><g stroke-linecap="round"><g stroke-opacity="0.8" fill-opacity="0.8" transform="translate(22.439737218162463 137.45081973783635) rotate(0 3.9889016964243638 6.268274094381468)"><path d="M0.88 0 C1.52 1.3, 2.21 5.95, 8.88 12.56 M-0.57 0.66 C2.72 4.65, 4.67 8.8, 8.55 12.13" stroke="#000000" stroke-width="2" fill="none"></path></g></g><mask></mask><g stroke-opacity="0.8" fill-opacity="0.8" transform="translate(55.97632593153594 38.21725808115207) rotate(0 0.00004999999998744897 0.00005000000000165983)" stroke="none"><path fill="#000000" d="M 1.57,-1.57 Q 1.57,-1.57 1.77,-1.27 1.98,-0.98 2.09,-0.64 2.20,-0.29 2.19,0.05 2.18,0.41 2.05,0.75 1.93,1.09 1.70,1.37 1.48,1.65 1.18,1.84 0.87,2.04 0.52,2.12 0.18,2.21 -0.17,2.18 -0.53,2.15 -0.86,2.01 -1.19,1.87 -1.46,1.63 -1.73,1.39 -1.90,1.07 -2.08,0.76 -2.15,0.41 -2.21,0.05 -2.17,-0.29 -2.12,-0.65 -1.96,-0.97 -1.80,-1.29 -1.54,-1.54 -1.29,-1.80 -0.97,-1.96 -0.65,-2.12 -0.29,-2.17 0.06,-2.21 0.41,-2.15 0.76,-2.08 1.07,-1.90 1.39,-1.73 1.63,-1.46 1.87,-1.19 2.01,-0.86 2.15,-0.53 2.18,-0.17 2.21,0.18 2.12,0.52 2.03,0.87 1.84,1.18 1.65,1.48 1.37,1.70 1.09,1.93 0.75,2.05 0.41,2.18 0.05,2.19 -0.30,2.20 -0.64,2.09 -0.98,1.98 -1.27,1.77 -1.57,1.56 -1.57,1.57 -1.57,1.57 -1.73,1.35 -1.90,1.14 -2.01,0.90 -2.12,0.66 -2.16,0.39 -2.21,0.13 -2.20,-0.13 -2.18,-0.40 -2.10,-0.65 -2.02,-0.91 -1.88,-1.14 -1.74,-1.36 -1.55,-1.55 -1.36,-1.74 -1.14,-1.88 -0.91,-2.02 -0.65,-2.10 -0.40,-2.18 -0.13,-2.20 0.13,-2.21 0.39,-2.16 0.66,-2.12 0.90,-2.01 1.14,-1.90 1.35,-1.73 1.57,-1.57 1.57,-1.57 L 1.57,-1.57 Z"></path></g><g stroke-opacity="0.8" fill-opacity="0.8" transform="translate(76.54536934574298 33.88965862934765) rotate(0 0 -0.721266575300433)" stroke="none"><path d="" stroke="#ffffff" stroke-width="0.5" fill="none"></path><path fill="#000000" d="M 2.12,-0.66 Q 2.12,-0.66 2.15,-0.13 2.18,0.40 1.96,0.88 1.74,1.36 1.32,1.69 0.91,2.02 0.38,2.12 -0.13,2.21 -0.64,2.05 -1.14,1.90 -1.52,1.52 -1.90,1.14 -2.05,0.64 -2.21,0.13 -2.12,-0.38 -2.02,-0.91 -1.69,-1.32 -1.36,-1.74 -0.88,-1.96 -0.39,-2.18 0.13,-2.15 0.66,-2.11 1.11,-1.84 1.57,-1.56 1.84,-1.11 L 2.12,-0.66 Z"></path></g><g stroke-linecap="round"><g stroke-opacity="0.8" fill-opacity="0.8" transform="translate(72.09793210739463 48.534461046036085) rotate(0 -6.0559852746073375 3.3644362636709957)"><path d="M0.28 0.33 C-1.66 1.53, -10.04 5.86, -12.1 6.83 M-0.24 0.03 C-2.21 1.09, -10.5 4.84, -12.53 5.92" stroke="#000000" stroke-width="1" fill="none"></path></g></g><mask></mask></svg>