<svg version="1.1" xmlns="http://www.w3.org/2000/svg" viewBox="0 0 274.5320553544144 281.0936007659269" width="549.0641107088288" height="562.1872015318538">
  <!-- svg-source:excalidraw -->
  
  <defs>
    <style class="style-fonts">
      
    </style>
    
  </defs>
  <rect x="0" y="0" width="274.5320553544144" height="281.0936007659269" fill="#ffffff"></rect><g stroke-opacity="0.8" fill-opacity="0.8" stroke-linecap="round" transform="translate(89.83506304460033 50.138010066204856) rotate(0 30.38759150813506 35.416666666666515)"><path d="M12.8 9.8 C12.8 9.8, 12.8 9.8, 12.8 9.8 M12.8 9.8 C12.8 9.8, 12.8 9.8, 12.8 9.8 M1.19 29.15 C13.37 18.76, 21.19 16.77, 32.4 5.33 M3.93 30.82 C13.19 21.91, 18.87 15.55, 29.9 1.44 M6.4 42.14 C17.41 32.57, 23.89 20.24, 41.41 4.71 M5.91 40.15 C12.25 31.57, 20.95 25.92, 39.03 5.33 M5.5 54.87 C14.47 37.2, 28.02 29.22, 47.94 5.08 M6.22 51.91 C22.37 37.47, 32 24.12, 48.54 7.9 M13.67 62.51 C27.77 38.65, 46.06 16.98, 57.02 13.11 M12.37 58.53 C26.59 45.64, 37.77 27.95, 52.89 11.28 M19.38 68.5 C31.77 51.48, 40.7 41.95, 61.2 20.19 M15.16 68.05 C25.56 54.71, 39.44 40.6, 56.52 17.1 M22.5 67.93 C36.92 58.44, 41.65 46.91, 62.83 27.89 M27.2 66.92 C34.9 55.17, 50.07 43.53, 60.6 27.51 M33.59 67.43 C42.81 63.36, 48.38 57.87, 63.21 36.05 M34.75 71.47 C44.65 59.8, 50.27 49.1, 64.72 36.66" stroke="#ffffff" stroke-width="1" fill="none"></path><path d="M29.9 0.69 C36.09 -0.15, 44.28 3.46, 48.8 6.9 C53.32 10.34, 54.94 14.96, 57.03 21.34 C59.11 27.73, 62.36 38.55, 61.33 45.22 C60.29 51.88, 55.43 57.4, 50.81 61.35 C46.19 65.31, 39.42 68.22, 33.6 68.93 C27.78 69.65, 20.84 69.08, 15.87 65.65 C10.9 62.22, 6.2 54.68, 3.76 48.37 C1.33 42.07, -0.27 34.29, 1.26 27.83 C2.79 21.38, 5.73 13.81, 12.94 9.64 C20.15 5.48, 37.12 1.11, 44.5 2.84 C51.89 4.57, 57.53 19.11, 57.24 20.04 M9.45 9.81 C13.72 5.67, 23.63 -0.16, 30.13 -0.69 C36.63 -1.23, 44.04 2.26, 48.46 6.59 C52.87 10.91, 54.36 18.48, 56.64 25.26 C58.92 32.04, 63.8 40.45, 62.13 47.26 C60.45 54.07, 51.73 62.51, 46.57 66.12 C41.41 69.73, 36.53 69.32, 31.15 68.9 C25.77 68.49, 18.76 67.59, 14.29 63.61 C9.82 59.63, 6.02 51.53, 4.33 45.02 C2.64 38.5, 3.42 30.28, 4.16 24.5 C4.9 18.72, 7.6 13.22, 8.76 10.32 C9.91 7.43, 10.29 7.48, 11.08 7.15" stroke="#000000" stroke-width="2" fill="none"></path></g><g stroke-linecap="round"><g stroke-opacity="0.8" fill-opacity="0.8" transform="translate(124.08383297257714 191.4780472620845) rotate(0 6.522798227431849 34.32517252168418)"><path d="M-2.89 2.45 C2.02 16.64, 1.94 33.26, -10.29 65.92 M-1.51 1.52 C-3.94 27.91, -4.24 53.54, -6.75 68.71 M-7.64 65.57 C5.2 71.9, 11.84 70.24, 17.3 69.22 M-6.41 67.98 C-0.33 68.4, 3.33 69.37, 21.64 69.99" stroke="#000000" stroke-width="2" fill="none"></path></g></g><mask></mask><g stroke-linecap="round"><g stroke-opacity="0.8" fill-opacity="0.8" transform="translate(78.46788147182141 187.50052893207283) rotate(0 -17.885998624508602 40.88228257030505)"><path d="M2.42 1.27 C-0.22 25.19, -10.52 42.73, -7.1 78.15 M-1.85 1.95 C-4.38 29.52, -8.38 55.73, -8.75 78.41 M-8.15 80.47 C-21.36 80.33, -32.5 80.78, -38.99 78.72 M-9.54 76.98 C-21.41 79.72, -27.83 81.73, -37.42 83.59" stroke="#000000" stroke-width="2" fill="none"></path></g></g><mask></mask><g stroke-linecap="round"><g stroke-opacity="0.8" fill-opacity="0.8" transform="translate(129.57073468470261 123.62196241597155) rotate(0 15.63882520641664 7.756987409542489)"><path d="M3.89 2.5 C6.81 11.36, 23.05 29.46, 29.36 35.91 M0.46 1.71 C9.56 14.37, 21 30.51, 28.6 38.56 M25.61 41.02 C23.25 32.29, 21.98 21.4, 27 7.99 M25.37 40.19 C27.56 31.46, 23.37 23.14, 23.72 5.74 M20.62 10.97 C20.87 -3.62, 24.4 -7.78, 17.53 -13.55 M22.52 8.93 C21.23 3.05, 22.88 -2.15, 19.06 -13.58 M16.08 -11.87 C25.65 -16.86, 29.32 -18.68, 32.07 -25.04 M18.22 -12.35 C20.56 -16.68, 25.69 -19.91, 31.68 -22.04" stroke="#000000" stroke-width="2" fill="none"></path></g></g><mask></mask><g stroke-linecap="round"><g stroke-opacity="0.8" fill-opacity="0.8" transform="translate(92.94107568475019 121.82979403508796) rotate(0 -37.25952336903197 41.13958109558598)"><path d="M-3.39 -2.54 C-17.01 22.81, -39.02 38.8, -61.26 58.15 M0.15 0.25 C-23.79 27.42, -49.14 49.87, -65.74 62.87 M-66.94 62.41 C-71.69 66.99, -69.39 79.08, -75.47 83.64 M-62.6 63.17 C-69.5 70.26, -71.23 73.62, -73.89 81.53" stroke="#000000" stroke-width="2" fill="none"></path></g></g><mask></mask><g stroke-linecap="round"><g stroke-opacity="0.8" fill-opacity="0.8" transform="translate(27.36502825894022 187.50052893207283) rotate(0 0.6387856651608672 7.026642316771358)"><path d="M1.1 0.53 C1.2 4.04, 1.88 8.9, 2.65 14.38 M0.52 0.62 C1.09 5.29, 0.49 11.2, 1.95 13.82" stroke="#000000" stroke-width="2" fill="none"></path></g></g><mask></mask><g stroke-linecap="round"><g stroke-opacity="0.8" fill-opacity="0.8" transform="translate(27.36502825894022 182.3902436107859) rotate(0 -8.942999312254187 4.47149965612698)"><path d="M1.22 -1.51 C-2.64 0.34, -6.45 4.76, -16.18 9.1 M0.84 -0.18 C-6.25 3.47, -10.16 5.42, -17.37 8.28" stroke="#000000" stroke-width="2" fill="none"></path></g></g><mask></mask><g stroke-linecap="round"><g stroke-opacity="0.8" fill-opacity="0.8" transform="translate(29.92017091958369 186.2229576017511) rotate(0 5.749070986449169 0.6387856651608672)"><path d="M0.88 -1.07 C5.01 0.79, 8.76 1.04, 11.64 2.13 M-0.42 0.3 C5.02 0.33, 9.23 0.63, 11.58 0.81" stroke="#000000" stroke-width="2" fill="none"></path></g></g><mask></mask><g stroke-linecap="round"><g stroke-opacity="0.8" fill-opacity="0.8" transform="translate(128.29316335438088 122.344391085648) rotate(0 -22.57637436641062 35.771997249017204)" fill-rule="evenodd"><path d="M-33.33 -1.15 C-33.33 -1.15, -33.33 -1.15, -33.33 -1.15 M-33.33 -1.15 C-33.33 -1.15, -33.33 -1.15, -33.33 -1.15 M-30.93 13.12 C-33.15 11.57, -29.82 6.5, -20.44 0.19 M-34.84 11.67 C-31.77 8.41, -26 3.89, -22.66 0.54 M-37.07 24.14 C-28.68 19.51, -24.81 7.67, -13.38 -2.16 M-32.44 23.71 C-29.46 17.16, -22.68 8.98, -13.02 -0.06 M-44.78 47.96 C-35.77 34.33, -20.35 21.24, -2.26 2.64 M-44.61 47.07 C-33.74 35.18, -23.68 21.85, -4.86 -0.64 M-48.09 64.75 C-37.26 46.05, -22.21 34.02, -2.61 3.92 M-50.65 66.76 C-36.3 49.24, -21.62 32.07, 3.01 7.12 M-40.72 75.1 C-29.62 58.11, -17.87 46.49, 1.68 17.52 M-42.19 71.37 C-29.56 54.03, -13.36 36.67, 2.89 20.2 M-34.95 73.17 C-29.89 65.76, -14.66 56.79, 6.89 27.47 M-34.4 73.36 C-22.54 59.35, -13.26 47.73, 2.73 29.62 M-28.35 73.27 C-16.73 66.49, -7.11 50.92, 3.95 44.57 M-24.34 75.14 C-18.23 66.76, -12.68 60.59, 1.07 42.46 M-11.54 71.49 C-12.75 65.54, -5.88 61.33, -1.45 61.04 M-13.86 73.92 C-9.24 69.52, -7.27 67.66, -0.44 60.09" stroke="#ffffff" stroke-width="1" fill="none"></path><path d="M-2.58 2.73 C-1.34 8.27, 6.56 23.66, 5.32 35.4 C4.09 47.14, -1.16 67.59, -10.01 73.17 C-18.86 78.75, -44.04 77.19, -47.77 68.89 C-51.5 60.59, -34.46 34.83, -32.38 23.38 C-30.29 11.92, -38.95 4.01, -35.24 0.17 C-31.52 -3.67, -16.22 0.7, -10.1 0.36 C-3.99 0.02, -0.29 -1.42, 1.46 -1.85 M1.21 1.74 C2.33 6.35, 5.59 19.23, 3.44 31.69 C1.29 44.14, -3.45 71.06, -11.7 76.47 C-19.95 81.89, -42.26 72.93, -46.07 64.19 C-49.88 55.44, -36.75 34.97, -34.57 24.02 C-32.39 13.07, -36.13 1.62, -33 -1.5 C-29.86 -4.62, -21.25 5.68, -15.77 5.32 C-10.3 4.96, -2.24 -3.09, -0.17 -3.66" stroke="#000000" stroke-width="2" fill="none"></path></g></g><mask></mask><g stroke-linecap="round"><g stroke-opacity="0.8" fill-opacity="0.8" transform="translate(139.09338124646283 87.97819823635325) rotate(0 10.862577562589877 4.456442076960229)" fill-rule="evenodd"><path d="M0.35 -1.97 C0.75 1.13, 0.05 14.87, 3.71 16.96 C7.37 19.05, 20.2 14.34, 22.32 10.56 C24.44 6.78, 20.46 -4.23, 16.43 -5.73 C12.39 -7.23, 0.49 0.31, -1.9 1.53" stroke="none" stroke-width="0" fill="#fa5252" fill-rule="evenodd"></path><path d="M0.28 1.03 C1.41 3.36, 1.94 13.33, 5.66 15.19 C9.38 17.05, 20.78 15.78, 22.61 12.19 C24.43 8.6, 20.52 -4.42, 16.6 -6.35 C12.69 -8.28, 1.71 -0.37, -0.87 0.62 M-1.03 0.52 C0.04 3.58, 0.87 15.16, 4.76 16.81 C8.65 18.45, 20.2 14.1, 22.3 10.4 C24.41 6.71, 20.95 -3.85, 17.38 -5.36 C13.81 -6.87, 3.85 0.72, 0.87 1.34" stroke="#000000" stroke-width="2" fill="none"></path></g></g><mask></mask><g stroke-linecap="round"><g stroke-opacity="0.8" fill-opacity="0.8" transform="translate(157.3987076461577 80.70914198670505) rotate(0 22.00368275498954 -4.177914447150215)"><path d="M0 0 C4.27 -4.64, 18.29 -30.17, 25.62 -27.85 C32.96 -25.53, 47.07 6.03, 44.01 13.93 C40.94 21.82, 13.37 18.57, 7.24 19.5 M0 0 C4.27 -4.64, 18.29 -30.17, 25.62 -27.85 C32.96 -25.53, 47.07 6.03, 44.01 13.93 C40.94 21.82, 13.37 18.57, 7.24 19.5" stroke="#000000" stroke-width="2" fill="none"></path></g></g><mask></mask><g stroke-linecap="round"><g stroke-opacity="0.8" fill-opacity="0.8" transform="translate(147.957018619487 103.56051493978373) rotate(0 8.077301264489734 5.570552596199832)"><path d="M0 0 C0.93 2.23, 2.88 11.88, 5.57 13.37 C8.26 14.85, 15.13 11.51, 16.15 8.91 C17.18 6.31, 12.44 -0.37, 11.7 -2.23 M0 0 C0.93 2.23, 2.88 11.88, 5.57 13.37 C8.26 14.85, 15.13 11.51, 16.15 8.91 C17.18 6.31, 12.44 -0.37, 11.7 -2.23" stroke="#000000" stroke-width="2" fill="none"></path></g></g><mask></mask><g stroke-linecap="round"><g stroke-opacity="0.8" fill-opacity="0.8" transform="translate(204.19942099334284 51.19732053550467) rotate(0 4.456442076959775 9.469939413539578)"><path d="M0.46 -0.1 C1.81 3.02, 7.02 16.08, 8.52 19.22 M0.03 -0.63 C1.52 2.57, 7.99 15.09, 9.55 18.4" stroke="#000000" stroke-width="2" fill="none"></path></g></g><mask></mask><g stroke-linecap="round"><g stroke-opacity="0.8" fill-opacity="0.8" transform="translate(210.3270288491627 33.371552227663756) rotate(0 15.87607489916968 20.611044605939696)"><path d="M-0.87 0.62 C3.61 2.63, 22.34 5.23, 27.88 11.86 C33.42 18.5, 31.7 35.7, 32.38 40.43 M0.88 -0.1 C5.22 2.1, 22.36 6.29, 27.54 13.19 C32.71 20.1, 31.15 36.72, 31.94 41.33" stroke="#000000" stroke-width="2" fill="none"></path></g></g><mask></mask><g stroke-linecap="round"><g stroke-opacity="0.8" fill-opacity="0.8" transform="translate(226.48163137814262 11.646397102484457) rotate(0 18.939878827079838 28.409818240619188)"><path d="M1.15 -0.39 C6.87 1.23, 27.34 0.97, 33.49 10.35 C39.64 19.72, 37.47 47.95, 38.05 55.85 M0.29 -1.65 C5.99 0.06, 26.69 1.75, 32.87 11.47 C39.05 21.19, 36.73 49.29, 37.37 56.66" stroke="#000000" stroke-width="2" fill="none"></path></g></g><mask></mask><g stroke-opacity="0.8" fill-opacity="0.8" transform="translate(121.27873535611943 72.69268146766478) rotate(0 0.00005000000000165983 0.00004999999998744897)" stroke="none"><path fill="#000000" d="M 1.57,-1.57 Q 1.57,-1.57 1.77,-1.27 1.98,-0.98 2.09,-0.64 2.20,-0.29 2.19,0.05 2.18,0.41 2.05,0.75 1.93,1.09 1.70,1.37 1.48,1.65 1.18,1.84 0.87,2.04 0.52,2.12 0.18,2.21 -0.17,2.18 -0.53,2.15 -0.86,2.01 -1.19,1.87 -1.46,1.63 -1.73,1.39 -1.90,1.07 -2.08,0.76 -2.15,0.41 -2.21,0.05 -2.17,-0.29 -2.12,-0.65 -1.96,-0.97 -1.80,-1.29 -1.54,-1.54 -1.29,-1.80 -0.97,-1.96 -0.65,-2.12 -0.29,-2.17 0.06,-2.21 0.41,-2.15 0.76,-2.08 1.07,-1.90 1.39,-1.73 1.63,-1.46 1.87,-1.19 2.01,-0.86 2.15,-0.53 2.18,-0.17 2.21,0.18 2.12,0.52 2.03,0.87 1.84,1.18 1.65,1.48 1.37,1.70 1.09,1.93 0.75,2.05 0.41,2.18 0.05,2.19 -0.30,2.20 -0.64,2.09 -0.98,1.98 -1.27,1.77 -1.57,1.56 -1.57,1.57 -1.57,1.57 -1.73,1.35 -1.90,1.14 -2.01,0.90 -2.12,0.66 -2.16,0.39 -2.21,0.13 -2.20,-0.13 -2.18,-0.40 -2.10,-0.65 -2.02,-0.91 -1.88,-1.14 -1.74,-1.36 -1.55,-1.55 -1.36,-1.74 -1.14,-1.88 -0.91,-2.02 -0.65,-2.10 -0.40,-2.18 -0.13,-2.20 0.13,-2.21 0.39,-2.16 0.66,-2.12 0.90,-2.01 1.14,-1.90 1.35,-1.73 1.57,-1.57 1.57,-1.57 L 1.57,-1.57 Z"></path></g><g stroke-opacity="0.8" fill-opacity="0.8" transform="translate(142.23824073471914 71.78139862511705) rotate(0 0.00005000000000165983 0.00004999999998744897)" stroke="none"><path fill="#000000" d="M 1.57,-1.57 Q 1.57,-1.57 1.77,-1.27 1.98,-0.98 2.09,-0.64 2.20,-0.29 2.19,0.05 2.18,0.41 2.05,0.75 1.93,1.09 1.70,1.37 1.48,1.65 1.18,1.84 0.87,2.04 0.52,2.12 0.18,2.21 -0.17,2.18 -0.53,2.15 -0.86,2.01 -1.19,1.87 -1.46,1.63 -1.73,1.39 -1.90,1.07 -2.08,0.76 -2.15,0.41 -2.21,0.05 -2.17,-0.29 -2.12,-0.65 -1.96,-0.97 -1.80,-1.29 -1.54,-1.54 -1.29,-1.80 -0.97,-1.96 -0.65,-2.12 -0.29,-2.17 0.06,-2.21 0.41,-2.15 0.76,-2.08 1.07,-1.90 1.39,-1.73 1.63,-1.46 1.87,-1.19 2.01,-0.86 2.15,-0.53 2.18,-0.17 2.21,0.18 2.12,0.52 2.03,0.87 1.84,1.18 1.65,1.48 1.37,1.70 1.09,1.93 0.75,2.05 0.41,2.18 0.05,2.19 -0.30,2.20 -0.64,2.09 -0.98,1.98 -1.27,1.77 -1.57,1.56 -1.57,1.57 -1.57,1.57 -1.73,1.35 -1.90,1.14 -2.01,0.90 -2.12,0.66 -2.16,0.39 -2.21,0.13 -2.20,-0.13 -2.18,-0.40 -2.10,-0.65 -2.02,-0.91 -1.88,-1.14 -1.74,-1.36 -1.55,-1.55 -1.36,-1.74 -1.14,-1.88 -0.91,-2.02 -0.65,-2.10 -0.40,-2.18 -0.13,-2.20 0.13,-2.21 0.39,-2.16 0.66,-2.12 0.90,-2.01 1.14,-1.90 1.35,-1.73 1.57,-1.57 1.57,-1.57 L 1.57,-1.57 Z"></path></g><g stroke-opacity="0.8" fill-opacity="0.8" transform="translate(131.30284662414633 88.18448979097809) rotate(0 0.00005000000000165983 0.00004999999998744897)" stroke="none"><path fill="#000000" d="M 3.14,-3.14 Q 3.14,-3.14 3.55,-2.55 3.97,-1.97 4.18,-1.28 4.40,-0.59 4.38,0.11 4.36,0.83 4.11,1.51 3.86,2.18 3.41,2.74 2.96,3.30 2.36,3.69 1.75,4.07 1.05,4.25 0.36,4.42 -0.35,4.36 -1.07,4.30 -1.73,4.02 -2.39,3.74 -2.92,3.26 -3.46,2.78 -3.81,2.15 -4.16,1.53 -4.30,0.82 -4.43,0.11 -4.34,-0.59 -4.24,-1.30 -3.92,-1.94 -3.60,-2.59 -3.09,-3.09 -2.59,-3.60 -1.94,-3.92 -1.30,-4.24 -0.59,-4.34 0.12,-4.43 0.82,-4.30 1.53,-4.16 2.15,-3.81 2.78,-3.46 3.26,-2.92 3.74,-2.39 4.02,-1.73 4.31,-1.07 4.36,-0.35 4.42,0.36 4.25,1.05 4.07,1.75 3.69,2.36 3.30,2.96 2.74,3.41 2.18,3.86 1.51,4.11 0.83,4.36 0.11,4.38 -0.60,4.40 -1.28,4.18 -1.97,3.97 -2.55,3.55 -3.14,3.13 -3.14,3.14 -3.14,3.14 -3.47,2.71 -3.80,2.29 -4.02,1.80 -4.24,1.32 -4.33,0.79 -4.43,0.26 -4.40,-0.26 -4.36,-0.80 -4.20,-1.31 -4.04,-1.82 -3.77,-2.28 -3.49,-2.73 -3.11,-3.11 -2.73,-3.49 -2.28,-3.77 -1.82,-4.05 -1.31,-4.20 -0.80,-4.36 -0.26,-4.40 0.26,-4.43 0.79,-4.33 1.32,-4.24 1.80,-4.02 2.29,-3.80 2.71,-3.47 3.14,-3.14 3.14,-3.14 L 3.14,-3.14 Z"></path></g></svg>