<svg version="1.1" xmlns="http://www.w3.org/2000/svg" viewBox="0 0 158.13731322890206 368.95930020138184" width="316.2746264578041" height="737.9186004027637">
  <!-- svg-source:excalidraw -->
  
  <defs>
    <style class="style-fonts">
      
    </style>
    
  </defs>
  <rect x="0" y="0" width="158.13731322890206" height="368.95930020138184" fill="#ffffff"></rect><g stroke-opacity="0.8" fill-opacity="0.8" stroke-linecap="round" transform="translate(33.16130075640558 151.75601073289198) rotate(0 37.5 35.416666666666515)"><path d="M8.6 11.45 C8.6 11.45, 8.6 11.45, 8.6 11.45 M8.6 11.45 C8.6 11.45, 8.6 11.45, 8.6 11.45 M-0.01 31.73 C10.65 17.17, 18.56 7, 25.7 7.26 M2.07 33.04 C7.58 25.63, 16.33 18.41, 24.22 1.9 M4.21 39.9 C14.16 31.14, 24.36 15.55, 35.96 9.65 M3.47 42.94 C11.29 31.19, 18.39 24.79, 33.25 4.25 M8.51 52.93 C12.56 38.52, 19.94 31.44, 48.42 6.47 M6.58 51.63 C16.35 39.1, 29.03 23.38, 45.25 8.72 M8.43 56.84 C22.85 40.57, 38.15 27.24, 57.11 10.18 M7.25 57.91 C17.05 49.3, 26.24 37.21, 54.66 7.79 M18.06 63.57 C29.02 45.95, 47.19 27.28, 61.65 8.51 M16.84 62.84 C28.37 50.19, 39.16 35.98, 62.93 12.95 M21.74 72.08 C30.55 53.87, 42.54 48.63, 64.74 13.6 M22.42 70.31 C34.76 56.03, 48.17 40.38, 68.57 15.41 M26.99 70.3 C47.34 56.74, 54.65 35.48, 75.32 20.31 M28.19 72.44 C38.79 58.35, 52.05 46.84, 74.79 19.94 M41.41 73.56 C46.92 64.81, 53.9 52.64, 80.29 34.78 M40.87 71.55 C53.18 57.69, 66.76 41.41, 77.67 28.85 M50.68 77.49 C53.93 66.41, 63.82 60.11, 78.59 38.3 M48.22 72.6 C55.03 66.33, 62.69 58.02, 76.82 41.38" stroke="#ffffff" stroke-width="1" fill="none"></path><path d="M50.45 3.63 C56.94 5.7, 65.15 10.44, 68.95 16.12 C72.76 21.81, 73.53 30.95, 73.27 37.72 C73.01 44.49, 72.28 51.62, 67.41 56.73 C62.55 61.85, 51.34 66.31, 44.07 68.43 C36.8 70.56, 30.38 71.71, 23.8 69.51 C17.23 67.3, 8.73 61.69, 4.62 55.19 C0.51 48.69, -1.51 37.76, -0.87 30.49 C-0.23 23.22, 3.32 16.3, 8.48 11.58 C13.64 6.87, 21.16 2.7, 30.1 2.21 C39.03 1.73, 55.46 5.82, 62.11 8.66 C68.76 11.5, 70.22 18.53, 70 19.24 M60.95 9.3 C66.75 13.35, 72.63 20.91, 74.81 27.3 C76.99 33.69, 77.13 41.11, 74.02 47.64 C70.9 54.18, 62.62 63.12, 56.15 66.5 C49.68 69.87, 42.1 68.47, 35.2 67.89 C28.29 67.31, 20.28 67.03, 14.74 63.01 C9.19 58.99, 3.78 50.19, 1.9 43.79 C0.03 37.39, 0.92 31.18, 3.49 24.59 C6.05 18.01, 11.62 8.42, 17.28 4.3 C22.95 0.18, 30.02 -0.85, 37.47 -0.15 C44.92 0.55, 58.62 7.14, 61.96 8.51 C65.3 9.89, 58.38 7.92, 57.5 8.12" stroke="#000000" stroke-width="2" fill="none"></path></g><g stroke-linecap="round"><g stroke-opacity="0.8" fill-opacity="0.8" transform="translate(56.07796742307164 222.5893440662241) rotate(0 21.61788755093471 28.428002989955985)" fill-rule="evenodd"><path d="M0 0 C0 0, 0 0, 0 0 M0 0 C0 0, 0 0, 0 0 M0.64 10.64 C3.51 11.06, 5.09 5.33, 9.12 -0.22 M0.14 11.14 C3.34 9.43, 7.49 3.94, 9.52 0.91 M1.52 24.12 C5.01 15.39, 12.93 10.96, 25.11 1.25 M0.33 25.81 C7.05 17.07, 16.24 9.61, 23.61 -1.26 M-0.94 33.34 C9.95 28.98, 19.17 13.82, 31.52 -1.44 M1.57 37.88 C10.31 20.89, 24.99 9.68, 35.74 -3.58 M-4.88 52.33 C11.13 40.96, 18.1 22.52, 42.93 2.59 M-2.26 51.54 C12.78 31.55, 27.83 17.65, 38.82 4.28 M-2.82 61.17 C18.81 44.58, 29.36 25.6, 38.93 13.62 M-0.61 59.12 C15.04 47.25, 28.49 30.65, 42.08 11.56 M7.6 65.62 C20.2 56.26, 21.43 41.7, 41.05 19.43 M7.41 60.52 C17.69 54.37, 26.08 45.54, 44.68 24.31 M16.79 65.77 C27.05 51.77, 32.17 47.47, 46.35 36.51 M18.71 63.22 C26.26 57.84, 28.62 48.67, 45.74 34.09 M32.43 62.78 C33.76 53.58, 39.73 48.23, 42.55 47.86 M31.98 60.88 C37 54.8, 41.05 50.45, 43.78 47.36" stroke="#ffffff" stroke-width="1" fill="none"></path><path d="M1.13 0.1 C1.21 5.5, -0.75 22.11, -0.75 32 C-0.75 41.88, -5.05 55.28, 1.13 59.42 C7.31 63.56, 29.5 62.49, 36.33 56.85 C43.15 51.22, 42.37 36.09, 42.09 25.6 C41.81 15.1, 39.25 -2.06, 34.64 -6.12 C30.03 -10.17, 19.86 0.4, 14.43 1.26 C9.01 2.11, 4.15 -0.55, 2.1 -1 M-1.71 -2.32 C-1.95 3.39, -3.71 23.59, -3.44 34.3 C-3.17 45.02, -6.66 58, -0.07 61.99 C6.52 65.98, 28.3 65.4, 36.09 58.26 C43.87 51.11, 46.57 29.05, 46.64 19.12 C46.71 9.19, 41.8 2.06, 36.5 -1.32 C31.2 -4.7, 20.76 -1, 14.81 -1.17 C8.87 -1.34, 3.39 -3.07, 0.83 -2.35" stroke="#000000" stroke-width="2" fill="none"></path></g></g><mask></mask><g stroke-linecap="round"><g stroke-opacity="0.8" fill-opacity="0.8" transform="translate(55.892703126325614 281.6363252845387) rotate(0 -15.385763686209202 38.464409215523574)"><path d="M-3.48 1.61 C-3.9 17.37, -8.17 37.49, -4.14 53.66 M1.5 -0.71 C-0.85 11.07, -5.76 23.35, -7.98 58.55 M-7.11 58.15 C-15.01 66.63, -21.97 73.23, -31.56 77.32 M-6.54 57.58 C-17.12 65.86, -24.6 69.73, -30.51 76.75" stroke="#000000" stroke-width="2" fill="none"></path></g></g><mask></mask><g stroke-linecap="round"><g stroke-opacity="0.8" fill-opacity="0.8" transform="translate(96.35156319006182 282.7760114835184) rotate(0 10.827018890295221 33.05089977037551)"><path d="M-1.42 -2.16 C-4.89 15.49, 0.94 30.33, -5.93 60.25 M1.56 -1.01 C-1.65 21.35, -1.21 45.2, -0.96 62.59 M-1.21 65.38 C7.48 65.59, 11.12 65.11, 26.26 67.76 M-3.78 64.37 C6.37 62.3, 16.48 65.07, 24.25 65.22" stroke="#000000" stroke-width="2" fill="none"></path></g></g><mask></mask><g stroke-linecap="round"><g stroke-opacity="0.8" fill-opacity="0.8" transform="translate(53.04348762887912 223.51232913663824) rotate(0 -19.94450848212341 23.933410178547547)"><path d="M-1.58 -0.82 C-13.01 7.52, -31.01 17.66, -41.75 30 M-0.9 -0.37 C-11.36 7.81, -21.71 14.51, -43.03 28.57 M-41.41 29.31 C-28.78 28.81, -12.87 29.79, 3.9 30.5 M-43.04 27.52 C-28.88 28.49, -15.1 28.49, 3.25 30.09 M2.73 30.5 C-3.24 33.63, -10.5 40.18, -18.06 49.55 M3.44 29.35 C-4.54 35.37, -9.71 40.94, -18.07 47.41" stroke="#000000" stroke-width="2" fill="none"></path></g></g><mask></mask><g stroke-linecap="round"><g stroke-opacity="0.8" fill-opacity="0.8" transform="translate(97.7101118296714 222.29655967415437) rotate(0 21.901665658544516 -63.07679709660806)"><path d="M-1.14 2.29 C3.62 -5.94, 19.92 -30.44, 27.06 -51.62 C34.2 -72.79, 38.56 -112.18, 41.7 -124.77 M3.43 1.06 C9.15 -6.72, 24.66 -27.61, 31.99 -49.38 C39.31 -71.14, 44.79 -116.92, 47.4 -129.54" stroke="#000000" stroke-width="2" fill="none"></path></g></g><mask></mask><g stroke-linecap="round"><g stroke-opacity="0.8" fill-opacity="0.8" transform="translate(138.88524326773495 121.54889764484886) rotate(0 3.942299818538004 -7.446566323905245)"><path d="M-1.17 -1.1 C0.08 -2.33, 6.2 -4.04, 6.98 -6.41 C7.77 -8.78, 4.1 -13.81, 3.53 -15.32 M0.42 0.94 C2.08 -0.73, 8.75 -5.7, 9.22 -8.22 C9.69 -10.75, 4.06 -13.15, 3.24 -14.23" stroke="#000000" stroke-width="2" fill="none"></path></g></g><mask></mask><g stroke-linecap="round"><g stroke-opacity="0.8" fill-opacity="0.8" transform="translate(74.93630353624485 105.17317896630828) rotate(0 -9.278924225064202 -31.239044891049616)" fill-rule="evenodd"><path d="M-21.91 -58.79 C-21.91 -58.79, -21.91 -58.79, -21.91 -58.79 M-21.91 -58.79 C-21.91 -58.79, -21.91 -58.79, -21.91 -58.79 M-33.89 -36.52 C-24.58 -42.75, -14.33 -49.77, -7.97 -65.55 M-32.81 -33.82 C-23.55 -41.79, -16.69 -51.51, -9.06 -61.62 M-29.6 -22.26 C-23.54 -33.09, -20.26 -37.36, 2.31 -62.07 M-31.08 -27.62 C-17.62 -38.45, -8.38 -50.03, 0.49 -61.92 M-24.58 -13.83 C-14.28 -35.64, 4.25 -48.65, 10.77 -57.34 M-27.3 -19.23 C-18.98 -25.38, -10.49 -35.19, 8.81 -57.27 M-18.69 -9.47 C-13.9 -21.19, -9.54 -26.17, 13.97 -53.9 M-21.86 -7.21 C-9.89 -21.15, 0.32 -35.63, 12.01 -51.36 M-15.25 0.28 C-12.86 -15.76, -2.64 -26.64, 11.43 -44.03 M-17.7 -2.11 C-6.62 -12.57, 2.6 -22, 14.57 -41.82 M-8.74 -3.65 C-3.65 -7.84, 7.18 -14.56, 9.17 -22.31 M-7.46 0.78 C-4.83 -8.57, 4.88 -14.97, 13.44 -25.28" stroke="#fab005" stroke-width="1" fill="none"></path><path d="M-2.1 1.39 C-4.18 1.44, -11.81 0.19, -15.22 -2.24 C-18.63 -4.66, -19.82 -9.35, -22.56 -13.17 C-25.29 -17, -29.66 -21.2, -31.6 -25.17 C-33.54 -29.13, -35.24 -32.13, -34.2 -36.96 C-33.16 -41.79, -28.26 -50.01, -25.38 -54.13 C-22.49 -58.24, -21.1 -60.38, -16.91 -61.65 C-12.71 -62.92, -4.92 -63.14, -0.2 -61.73 C4.51 -60.32, 8.69 -56.07, 11.39 -53.19 C14.09 -50.32, 15.68 -48.97, 16 -44.47 C16.31 -39.98, 14.19 -30.26, 13.27 -26.21 C12.34 -22.16, 11.72 -22.5, 10.44 -20.18 C9.15 -17.87, 7.64 -15.96, 5.55 -12.33 C3.46 -8.71, -1.04 -0.04, -2.11 1.56 M1.96 -0.33 C-0.06 0.35, -12.12 2.6, -16.31 0.85 C-20.5 -0.9, -20.5 -6.84, -23.18 -10.84 C-25.85 -14.83, -31.34 -19.05, -32.39 -23.13 C-33.44 -27.2, -29.92 -29.62, -29.47 -35.28 C-29.02 -40.94, -31.96 -52.18, -29.68 -57.08 C-27.41 -61.99, -20.38 -63.87, -15.84 -64.71 C-11.29 -65.55, -6.41 -63.67, -2.4 -62.12 C1.61 -60.58, 4.78 -58.16, 8.25 -55.45 C11.72 -52.73, 17.45 -49.81, 18.44 -45.84 C19.42 -41.87, 15.96 -35.88, 14.17 -31.64 C12.39 -27.4, 8.97 -23.29, 7.73 -20.39 C6.49 -17.49, 7.42 -17.98, 6.75 -14.26 C6.08 -10.53, 4.94 -0.93, 3.73 1.96" stroke="#000000" stroke-width="2" fill="none"></path></g></g><mask></mask><g stroke-linecap="round"><g stroke-opacity="0.8" fill-opacity="0.8" transform="translate(58.234239931129196 109.50334360467258) rotate(0 8.969626750895259 -0.6185949483378863)" fill-rule="evenodd"><path d="M0 0 C0 0, 0 0, 0 0 M0 0 C0 0, 0 0, 0 0" stroke="#ffffff" stroke-width="1" fill="none"></path><path d="M0.9 -0.43 C4.2 -0.84, 19.21 -1.84, 18.88 -1.85 C18.55 -1.85, 2.12 -0.85, -1.08 -0.45 M-0.08 -1.7 C3.22 -2.01, 18.2 -1.02, 18.42 -0.63 C18.64 -0.24, 4.36 0.81, 1.24 0.64" stroke="#000000" stroke-width="2" fill="none"></path></g></g><mask></mask><g stroke-linecap="round"><g stroke-opacity="0.8" fill-opacity="0.8" transform="translate(60.090024776141945 116.30788803638569) rotate(0 6.8045444317137935 -0.3092974741684884)" fill-rule="evenodd"><path d="M0 0 C0 0, 0 0, 0 0 M0 0 C0 0, 0 0, 0 0" stroke="#ffffff" stroke-width="1" fill="none"></path><path d="M0.94 -0.61 C2.88 -0.72, 12.74 -1.27, 12.53 -1.07 C12.31 -0.86, 1.61 0.49, -0.34 0.6 M-0.03 1.69 C2.19 1.78, 14.88 0.76, 14.67 0.24 C14.46 -0.28, 0.92 -1.48, -1.29 -1.43" stroke="#000000" stroke-width="2" fill="none"></path></g></g><mask></mask><g stroke-linecap="round"><g stroke-opacity="0.8" fill-opacity="0.8" transform="translate(59.81042120568236 98.36863453459608) rotate(0 6.1660500612530456 -14.85057018777323)"><path d="M0 0 C-0.47 -4.68, -3.12 -24.48, -2.85 -28.1 C-2.57 -31.71, 0.75 -21.41, 1.66 -21.67 C2.57 -21.94, 1.82 -29.97, 2.61 -29.7 C3.4 -29.43, 5.45 -20.25, 6.4 -20.07 C7.35 -19.89, 7.51 -28.72, 8.3 -28.63 C9.09 -28.54, 10 -19.49, 11.15 -19.53 C12.29 -19.58, 14.86 -32.06, 15.18 -28.9 C15.49 -25.73, 13.4 -5.26, 13.04 -0.54 M0 0 C-0.47 -4.68, -3.12 -24.48, -2.85 -28.1 C-2.57 -31.71, 0.75 -21.41, 1.66 -21.67 C2.57 -21.94, 1.82 -29.97, 2.61 -29.7 C3.4 -29.43, 5.45 -20.25, 6.4 -20.07 C7.35 -19.89, 7.51 -28.72, 8.3 -28.63 C9.09 -28.54, 10 -19.49, 11.15 -19.53 C12.29 -19.58, 14.86 -32.06, 15.18 -28.9 C15.49 -25.73, 13.4 -5.26, 13.04 -0.54" stroke="#000000" stroke-width="2" fill="none"></path></g></g><mask></mask><g stroke-linecap="round"><g stroke-opacity="0.8" fill-opacity="0.8" transform="translate(80.5036580712831 25.993025579094308) rotate(0 3.0929747416882947 -5.876652009207191)"><path d="M-0.34 0.6 C1 -1.35, 5.95 -10.11, 6.97 -12.15 M1.68 -0.14 C3.03 -1.88, 5.91 -9.13, 6.44 -10.82" stroke="#000000" stroke-width="2" fill="none"></path></g></g><mask></mask><g stroke-linecap="round"><g stroke-opacity="0.8" fill-opacity="0.8" transform="translate(52.66688539609004 27.848810424107967) rotate(0 -4.020867164194442 -8.969626750895713)"><path d="M0.79 -0.4 C-0.55 -3.47, -6.95 -14.98, -8.4 -17.85 M-0.26 -1.65 C-1.76 -4.57, -8.15 -13.85, -9.53 -16.26" stroke="#000000" stroke-width="2" fill="none"></path></g></g><mask></mask><g stroke-linecap="round"><g stroke-opacity="0.8" fill-opacity="0.8" transform="translate(101.53588631476214 52.592608357612505) rotate(0 7.113841905882737 -3.0929747416880673)"><path d="M-0.35 0.09 C1.92 -0.82, 11.87 -4.95, 14.41 -5.86 M1.66 -0.91 C3.72 -2.16, 11.42 -6.75, 13.55 -7.82" stroke="#000000" stroke-width="2" fill="none"></path></g></g><mask></mask><g stroke-linecap="round"><g stroke-opacity="0.8" fill-opacity="0.8" transform="translate(30.397467255936135 62.49012753101414) rotate(0 -8.660329276726543 -2.1650823191816926)"><path d="M0.18 0.32 C-2.54 -0.28, -13.85 -2.72, -16.68 -3.53 M-1.19 -0.55 C-3.98 -1.5, -14.6 -4.77, -17.3 -5.24" stroke="#000000" stroke-width="2" fill="none"></path></g></g><mask></mask><g stroke-opacity="0.8" fill-opacity="0.8" transform="translate(67.14488528880156 182.19325750937622) rotate(0 0.00005000000000165983 0.00004999999998744897)" stroke="none"><path fill="#000000" d="M 1.57,-1.57 Q 1.57,-1.57 1.77,-1.27 1.98,-0.98 2.09,-0.64 2.20,-0.29 2.19,0.05 2.18,0.41 2.05,0.75 1.93,1.09 1.70,1.37 1.48,1.65 1.18,1.84 0.87,2.04 0.52,2.12 0.18,2.21 -0.17,2.18 -0.53,2.15 -0.86,2.01 -1.19,1.87 -1.46,1.63 -1.73,1.39 -1.90,1.07 -2.08,0.76 -2.15,0.41 -2.21,0.05 -2.17,-0.29 -2.12,-0.65 -1.96,-0.97 -1.80,-1.29 -1.54,-1.54 -1.29,-1.80 -0.97,-1.96 -0.65,-2.12 -0.29,-2.17 0.06,-2.21 0.41,-2.15 0.76,-2.08 1.07,-1.90 1.39,-1.73 1.63,-1.46 1.87,-1.19 2.01,-0.86 2.15,-0.53 2.18,-0.17 2.21,0.18 2.12,0.52 2.03,0.87 1.84,1.18 1.65,1.48 1.37,1.70 1.09,1.93 0.75,2.05 0.41,2.18 0.05,2.19 -0.30,2.20 -0.64,2.09 -0.98,1.98 -1.27,1.77 -1.57,1.56 -1.57,1.57 -1.57,1.57 -1.73,1.35 -1.90,1.14 -2.01,0.90 -2.12,0.66 -2.16,0.39 -2.21,0.13 -2.20,-0.13 -2.18,-0.40 -2.10,-0.65 -2.02,-0.91 -1.88,-1.14 -1.74,-1.36 -1.55,-1.55 -1.36,-1.74 -1.14,-1.88 -0.91,-2.02 -0.65,-2.10 -0.40,-2.18 -0.13,-2.20 0.13,-2.21 0.39,-2.16 0.66,-2.12 0.90,-2.01 1.14,-1.90 1.35,-1.73 1.57,-1.57 1.57,-1.57 L 1.57,-1.57 Z"></path></g><g stroke-opacity="0.8" fill-opacity="0.8" transform="translate(88.78288254781 177.86565805757454) rotate(0 0 -0.721266575300433)" stroke="none"><path d="" stroke="#ffffff" stroke-width="0.5" fill="none"></path><path fill="#000000" d="M 2.12,-0.66 Q 2.12,-0.66 2.15,-0.13 2.18,0.40 1.96,0.88 1.74,1.36 1.32,1.69 0.91,2.02 0.38,2.12 -0.13,2.21 -0.64,2.05 -1.14,1.90 -1.52,1.52 -1.90,1.14 -2.05,0.64 -2.21,0.13 -2.12,-0.38 -2.02,-0.91 -1.69,-1.32 -1.36,-1.74 -0.88,-1.96 -0.39,-2.18 0.13,-2.15 0.66,-2.11 1.11,-1.84 1.57,-1.56 1.84,-1.11 L 2.12,-0.66 Z"></path></g><g stroke-linecap="round"><g stroke-opacity="0.8" fill-opacity="0.8" transform="translate(45.75599634966136 195.5706155771408) rotate(180.707313349537 21.725995289184937 -2.626622748838315)"><path d="M0.05 0.32 C4.8 -0.49, 21.45 -4.11, 28.73 -4.97 C36 -5.82, 41.31 -4.9, 43.69 -4.83 M-0.58 0.01 C4.1 -0.95, 21.07 -5.08, 28.41 -5.78 C35.75 -6.49, 41.04 -4.27, 43.47 -4.23" stroke="#000000" stroke-width="1" fill="none"></path></g></g><mask></mask></svg>