<svg version="1.1" xmlns="http://www.w3.org/2000/svg" viewBox="0 0 118.25805694108521 222.5488874181383" width="236.51611388217043" height="445.0977748362766">
  <!-- svg-source:excalidraw -->
  
  <defs>
    <style class="style-fonts">
      
    </style>
    
  </defs>
  <g stroke-opacity="0.8" fill-opacity="0.8" stroke-linecap="round" transform="translate(17.374202667216196 10) rotate(0 37.5 35.416666666666515)"><path d="M16.6 6.48 C16.6 6.48, 16.6 6.48, 16.6 6.48 M16.6 6.48 C16.6 6.48, 16.6 6.48, 16.6 6.48 M7.24 36.59 C12.87 26.2, 19.53 12.01, 31.67 4.62 M2.34 32.04 C8.19 26.22, 14.55 21.33, 32.26 2.7 M3.85 47.79 C19.95 31.35, 30.67 15.48, 41.98 -1.79 M3.89 43.92 C10.85 38.2, 20.08 27.98, 43.76 1.19 M5.04 57.11 C27.14 34.03, 44.19 11.2, 50.94 7.66 M6.9 53.59 C23.02 31.83, 43.21 16.12, 48.73 3.21 M12.87 63.59 C21.53 44.57, 40.25 29.06, 57.4 5.12 M10.35 59.19 C32.06 40.77, 47.14 18.8, 56.41 7.23 M21.87 64.79 C34.73 51.49, 42.16 31.98, 62.26 13.04 M16.16 64.1 C33.57 50.24, 46.55 32.87, 62.39 12.88 M25.19 63.61 C37.51 52.37, 51.5 47.11, 69.75 18.23 M26.25 66.84 C40.11 52.73, 54.62 34.54, 68.88 18.09 M38.82 72.82 C44.43 57.47, 57.97 44.46, 74.95 28.53 M37.56 68.78 C47.16 57.96, 56.15 48.11, 75 26.91 M49.37 64.91 C55.2 60.93, 61.9 54.32, 70.56 38.91 M48.81 67.09 C57.6 55.1, 69.66 43.22, 74.49 38.72" stroke="#ffffff" stroke-width="1" fill="none"></path><path d="M16.85 6.19 C22.73 1.75, 32.55 -0.08, 39.61 0.35 C46.66 0.79, 53.36 4.49, 59.17 8.78 C64.98 13.07, 72.11 19.68, 74.45 26.09 C76.78 32.49, 75.79 41.03, 73.19 47.19 C70.59 53.36, 65.14 59.43, 58.83 63.06 C52.52 66.69, 42.8 68.77, 35.35 68.97 C27.9 69.18, 19.41 68.04, 14.12 64.29 C8.83 60.54, 5.46 53.32, 3.59 46.48 C1.72 39.64, -2.43 30.91, 2.92 23.27 C8.27 15.63, 27.37 3.59, 35.69 0.65 C44.02 -2.28, 53.07 5.25, 52.89 5.64 M70.27 12.87 C75.24 18.55, 78.18 30.35, 77.86 37.56 C77.55 44.77, 73.34 50.48, 68.39 56.13 C63.43 61.79, 55.87 69.2, 48.15 71.48 C40.43 73.75, 29.34 72.76, 22.07 69.78 C14.8 66.79, 8.26 60.05, 4.54 53.59 C0.82 47.13, -0.62 37.44, -0.27 31.01 C0.07 24.59, 2.27 19.58, 6.62 15.04 C10.97 10.49, 18.53 5.81, 25.82 3.75 C33.12 1.69, 42.97 0.24, 50.41 2.66 C57.85 5.08, 67.97 16.25, 70.44 18.28 C72.91 20.3, 66.21 14.96, 65.21 14.82" stroke="#000000" stroke-width="2" fill="none"></path></g><g stroke-linecap="round"><g stroke-opacity="0.8" fill-opacity="0.8" transform="translate(40.290869333882256 80.83333333333394) rotate(0 21.61788755093471 28.428002989955985)" fill-rule="evenodd"><path d="M0 0 C0 0, 0 0, 0 0 M0 0 C0 0, 0 0, 0 0 M-0.2 8.99 C2.2 9.82, 5.63 6.56, 10.39 0.41 M-0.63 11.42 C3.46 7.6, 8.54 4.8, 11.69 -0.18 M-0.36 25.93 C8.37 19.37, 18.52 10.65, 18.62 1.87 M1.35 23.32 C9.94 13.53, 15.96 5.85, 23.69 0.99 M-0.75 34.28 C14.46 22.63, 23.47 3.34, 32.81 -6.42 M-1.34 37.68 C10.62 27.52, 17.35 16.64, 33.53 -3.83 M-1.21 49.33 C12.79 29.96, 23.88 20.48, 37.86 3.16 M-0.8 51.34 C9.51 38.91, 18.33 30.14, 39.22 1.49 M3.29 57.16 C17.42 44.24, 37.14 20.58, 44.09 10.07 M1.81 62.5 C13.5 44.35, 28.2 31.35, 43.72 12.4 M11.41 62.19 C22.92 44.35, 39.23 29.81, 44.33 20.13 M7.81 62.04 C15.75 51.89, 23.97 43.86, 43.22 25.16 M16.41 59.97 C24.15 55.04, 33.41 47.41, 43.15 30.96 M16.87 65.44 C23.06 56.43, 28.32 51.69, 43.29 33.45 M34.66 64.01 C35.2 57.02, 37.71 53.49, 40.26 46.34 M31.03 59.5 C35.41 55.8, 37.97 53.52, 44.35 49.27" stroke="#ffffff" stroke-width="1" fill="none"></path><path d="M-1.74 -1.61 C-1.44 4.37, 2.14 25.31, 2.33 36.08 C2.52 46.84, -6.6 59.28, -0.6 62.98 C5.4 66.67, 30.59 64.57, 38.33 58.24 C46.07 51.91, 45.69 35.26, 45.84 24.98 C46 14.71, 44.03 0.89, 39.28 -3.41 C34.53 -7.71, 24.17 -0.95, 17.35 -0.82 C10.54 -0.69, 1.69 -2.5, -1.63 -2.63 M2.51 3.69 C2.59 8.85, 2.19 22.77, 1.32 31.96 C0.45 41.15, -9.04 54.1, -2.73 58.84 C3.58 63.58, 31.43 65.73, 39.18 60.39 C46.94 55.05, 44.48 37.84, 43.79 26.82 C43.09 15.79, 39.09 -0.58, 35.01 -5.78 C30.93 -10.98, 24.54 -5.96, 19.32 -4.37 C14.1 -2.77, 6.81 2.56, 3.7 3.78" stroke="#000000" stroke-width="2" fill="none"></path></g></g><mask></mask><g stroke-linecap="round"><g stroke-opacity="0.8" fill-opacity="0.8" transform="translate(41.223194312275155 143.14925073272843) rotate(0 -14.24607748723065 31.911213571397184)"><path d="M2.34 -0.85 C2.59 14.56, -2.67 31.41, 0.69 60.86 M-1.17 -1.88 C-2.04 16.63, -0.33 37.34, -1.34 59.12 M-3.52 60.79 C-8.81 58.44, -11.2 59.49, -31.22 65.82 M-0.68 57.24 C-6.54 60.66, -13.85 61.3, -29.62 62.9" stroke="#000000" stroke-width="2" fill="none"></path></g></g><mask></mask><g stroke-linecap="round"><g stroke-opacity="0.8" fill-opacity="0.8" transform="translate(79.97252507754365 139.730192135793) rotate(0 14.246077487230878 34.475507519098755)"><path d="M3.66 0.7 C-0.04 27.15, 3.99 49.58, 1.36 62.71 M-1.86 -1.11 C-0.03 18.82, 0.28 34.94, 0.18 62.77 M0.72 60.28 C13.96 61.95, 16.23 68.02, 24.5 72.82 M1.56 62.83 C8.43 64.95, 17.59 65.61, 28.29 67.05" stroke="#000000" stroke-width="2" fill="none"></path></g></g><mask></mask><g stroke-linecap="round"><g stroke-opacity="0.8" fill-opacity="0.8" transform="translate(81.68205437601137 79.896666689423) rotate(0 5.413509445147838 11.681783539529533)"><path d="M-1.19 3.73 C7.86 15.7, 10.29 27.16, 15.55 44.4 M0.38 1.84 C2.91 10.81, 4.99 20.67, 17.06 45.82 M20.47 45.07 C14.12 27.42, 13.07 7.98, 17.89 -9.34 M15 47.52 C15.3 30.95, 16.37 15.11, 16.07 -10.28 M17.45 -10 C16.61 -15.82, 11.02 -16.3, 7.07 -19.93 M16.98 -10.77 C13.01 -14.71, 9.6 -16.61, 7.53 -18.17 M9.33 -18.04 C-0.3 -21.33, -1.36 -23.67, -3.81 -26.15 M8.7 -18.32 C3.39 -19.41, -1.49 -22.27, -5.85 -22.67" stroke="#000000" stroke-width="2" fill="none"></path></g></g><mask></mask><g stroke-linecap="round"><g stroke-opacity="0.8" fill-opacity="0.8" transform="translate(97.63766116170973 74.76807879401986) rotate(0 -5.413509445147838 -2.564293947701117)"><path d="M0.72 0.82 C-3.36 -1.18, -7.16 -3.85, -11.95 -6.24 M0.11 0.3 C-2.94 -0.79, -5.14 -2.68, -10.43 -5.19" stroke="#000000" stroke-width="2" fill="none"></path></g></g><mask></mask><g stroke-linecap="round"><g stroke-opacity="0.8" fill-opacity="0.8" transform="translate(34.95492021789505 78.18713739095529) rotate(0 -7.97780339284941 44.447761760160574)"><path d="M0.22 1.17 C-6.73 14.92, -15.78 30.56, -18.19 44.06 M-0.96 1.22 C-5.56 16.23, -11.02 33.9, -16.59 45.28 M-19.95 47.18 C-14.46 57.1, -15.7 67.68, -8.25 85.84 M-16.16 41.4 C-15.75 59.95, -14.09 75.96, -10.98 89.18" stroke="#000000" stroke-width="2" fill="none"></path></g></g><mask></mask><g stroke-linecap="round"><g stroke-opacity="0.8" fill-opacity="0.8" transform="translate(22.988215128621505 137.45081973783635) rotate(0 3.9889016964243638 6.268274094381468)"><path d="M-0.36 -0.87 C1.55 3.21, 5.06 9.49, 9.34 12.81 M0.2 -0.34 C3.23 4.26, 5.29 9.46, 7.67 12.03" stroke="#000000" stroke-width="2" fill="none"></path></g></g><mask></mask><g stroke-opacity="0.8" fill-opacity="0.8" transform="translate(56.52480384199498 38.21725808115207) rotate(0 0.00004999999998744897 0.00004999999998744897)" stroke="none"><path fill="#000000" d="M 1.57,-1.57 Q 1.57,-1.57 1.77,-1.27 1.98,-0.98 2.09,-0.64 2.20,-0.29 2.19,0.05 2.18,0.41 2.05,0.75 1.93,1.09 1.70,1.37 1.48,1.65 1.18,1.84 0.87,2.04 0.52,2.12 0.18,2.21 -0.17,2.18 -0.53,2.15 -0.86,2.01 -1.19,1.87 -1.46,1.63 -1.73,1.39 -1.90,1.07 -2.08,0.76 -2.15,0.41 -2.21,0.05 -2.17,-0.29 -2.12,-0.65 -1.96,-0.97 -1.80,-1.29 -1.54,-1.54 -1.29,-1.80 -0.97,-1.96 -0.65,-2.12 -0.29,-2.17 0.06,-2.21 0.41,-2.15 0.76,-2.08 1.07,-1.90 1.39,-1.73 1.63,-1.46 1.87,-1.19 2.01,-0.86 2.15,-0.53 2.18,-0.17 2.21,0.18 2.12,0.52 2.03,0.87 1.84,1.18 1.65,1.48 1.37,1.70 1.09,1.93 0.75,2.05 0.41,2.18 0.05,2.19 -0.30,2.20 -0.64,2.09 -0.98,1.98 -1.27,1.77 -1.57,1.56 -1.57,1.57 -1.57,1.57 -1.73,1.35 -1.90,1.14 -2.01,0.90 -2.12,0.66 -2.16,0.39 -2.21,0.13 -2.20,-0.13 -2.18,-0.40 -2.10,-0.65 -2.02,-0.91 -1.88,-1.14 -1.74,-1.36 -1.55,-1.55 -1.36,-1.74 -1.14,-1.88 -0.91,-2.02 -0.65,-2.10 -0.40,-2.18 -0.13,-2.20 0.13,-2.21 0.39,-2.16 0.66,-2.12 0.90,-2.01 1.14,-1.90 1.35,-1.73 1.57,-1.57 1.57,-1.57 L 1.57,-1.57 Z"></path></g><g stroke-opacity="0.8" fill-opacity="0.8" transform="translate(77.09384725620203 33.88965862934765) rotate(0 0 -0.721266575300433)" stroke="none"><path d="" stroke="#ffffff" stroke-width="0.5" fill="none"></path><path fill="#000000" d="M 2.12,-0.66 Q 2.12,-0.66 2.15,-0.13 2.18,0.40 1.96,0.88 1.74,1.36 1.32,1.69 0.91,2.02 0.38,2.12 -0.13,2.21 -0.64,2.05 -1.14,1.90 -1.52,1.52 -1.90,1.14 -2.05,0.64 -2.21,0.13 -2.12,-0.38 -2.02,-0.91 -1.69,-1.32 -1.36,-1.74 -0.88,-1.96 -0.39,-2.18 0.13,-2.15 0.66,-2.11 1.11,-1.84 1.57,-1.56 1.84,-1.11 L 2.12,-0.66 Z"></path></g><g stroke-linecap="round"><g stroke-opacity="0.8" fill-opacity="0.8" transform="translate(72.64641001785367 48.534461046036085) rotate(0 -6.0559852746073375 3.3644362636709957)"><path d="M0.1 0.51 C-1.81 1.72, -9.93 5.91, -12.01 7 M-0.51 0.29 C-2.44 1.37, -10.33 5.2, -12.39 6.18" stroke="#000000" stroke-width="1" fill="none"></path></g></g><mask></mask><g transform="translate(11.484171235700614 207.10910510596113) rotate(0 13.491397884708704 -1.9987256125494355)" stroke="none"><path fill="#1971c2" d="M -0.12,-2.57 Q -0.12,-2.57 1.01,-2.65 2.16,-2.74 3.39,-2.93 4.62,-3.12 5.72,-3.57 6.82,-4.02 8.11,-4.47 9.40,-4.91 10.61,-5.28 11.82,-5.64 13.05,-5.95 14.27,-6.26 15.54,-6.69 16.81,-7.12 18.38,-7.49 19.94,-7.86 21.04,-7.99 22.14,-8.13 23.39,-8.27 24.64,-8.40 25.71,-8.51 26.79,-8.61 26.36,-8.52 25.93,-8.43 26.34,-8.58 26.76,-8.74 27.20,-8.79 27.64,-8.84 28.08,-8.78 28.52,-8.72 28.94,-8.56 29.35,-8.40 29.72,-8.15 30.08,-7.89 30.37,-7.56 30.66,-7.22 30.87,-6.83 31.07,-6.43 31.17,-6.00 31.28,-5.57 31.27,-5.13 31.27,-4.68 31.16,-4.25 31.05,-3.82 30.84,-3.43 30.63,-3.04 30.34,-2.71 30.04,-2.38 29.67,-2.13 29.31,-1.88 27.48,-2.08 25.65,-2.28 24.74,-1.41 23.83,-0.55 22.51,-0.15 21.19,0.24 20.01,0.57 18.82,0.91 17.61,1.11 16.40,1.32 15.18,1.45 13.96,1.58 12.55,2.05 11.13,2.53 10.16,2.98 9.18,3.44 8.05,3.75 6.91,4.07 5.81,4.31 4.71,4.54 3.64,4.67 2.56,4.79 1.49,4.92 0.42,5.06 -1.80,2.18 -4.04,-0.69 -2.37,-1.76 -0.71,-2.84 0.49,-2.86 1.70,-2.87 2.78,-2.95 3.87,-3.04 5.10,-3.11 6.33,-3.19 7.61,-3.28 8.89,-3.37 10.02,-3.58 11.15,-3.80 12.37,-4.13 13.59,-4.46 14.65,-4.69 15.70,-4.93 17.03,-5.26 18.36,-5.59 19.56,-5.86 20.76,-6.12 21.96,-6.49 23.16,-6.87 23.96,-7.31 24.76,-7.75 25.31,-8.04 25.85,-8.34 26.45,-8.45 27.06,-8.56 27.67,-8.47 28.28,-8.38 28.83,-8.10 29.38,-7.82 29.81,-7.38 30.24,-6.94 30.51,-6.38 30.78,-5.83 30.86,-5.21 30.93,-4.60 30.81,-4.00 30.69,-3.39 30.38,-2.86 30.07,-2.33 29.60,-1.92 29.14,-1.51 28.57,-1.27 28.00,-1.04 27.39,-0.99 26.77,-0.95 26.17,-1.11 25.58,-1.26 25.06,-1.60 24.54,-1.94 24.16,-2.42 23.78,-2.91 23.57,-3.49 23.37,-4.07 23.36,-4.69 23.35,-5.30 23.54,-5.89 23.72,-6.48 24.09,-6.98 24.45,-7.47 24.96,-7.83 25.47,-8.18 26.06,-8.36 26.65,-8.53 27.27,-8.51 27.88,-8.49 28.46,-8.27 29.04,-8.05 29.51,-7.65 29.99,-7.26 30.32,-6.74 30.64,-6.22 30.78,-5.62 30.93,-5.01 30.87,-4.40 30.81,-3.79 30.56,-3.22 30.31,-2.66 29.89,-2.20 29.48,-1.75 29.48,-1.75 29.48,-1.75 26.96,-0.57 24.44,0.59 23.18,0.86 21.92,1.13 20.70,1.46 19.47,1.79 17.93,2.21 16.40,2.62 15.26,2.92 14.13,3.22 12.99,3.54 11.85,3.86 10.31,4.07 8.77,4.27 7.48,4.38 6.20,4.49 4.62,4.60 3.04,4.70 1.50,4.79 -0.04,4.87 1.35,3.86 2.75,2.85 2.04,0.04 1.34,-2.77 2.62,-2.93 3.89,-3.09 5.06,-3.40 6.23,-3.72 7.22,-4.11 8.21,-4.50 9.62,-4.93 11.04,-5.36 12.23,-5.59 13.43,-5.82 15.16,-6.09 16.89,-6.37 18.20,-6.71 19.51,-7.06 21.06,-7.45 22.62,-7.85 23.90,-8.17 25.19,-8.48 26.34,-8.67 27.50,-8.87 28.52,-8.47 29.54,-8.07 27.74,-8.25 25.93,-8.43 26.34,-8.58 26.76,-8.74 27.20,-8.79 27.64,-8.84 28.08,-8.78 28.52,-8.72 28.94,-8.56 29.35,-8.40 29.72,-8.15 30.08,-7.89 30.37,-7.56 30.66,-7.22 30.87,-6.83 31.07,-6.43 31.17,-6.00 31.28,-5.57 31.27,-5.13 31.27,-4.68 31.16,-4.25 31.05,-3.82 30.84,-3.43 30.63,-3.04 30.34,-2.71 30.04,-2.38 29.67,-2.13 29.31,-1.88 29.31,-2.18 29.32,-2.48 27.77,-1.81 26.22,-1.14 25.12,-1.16 24.01,-1.18 22.83,-1.11 21.66,-1.03 20.36,-0.83 19.06,-0.62 17.97,-0.31 16.89,-0.00 15.53,0.26 14.17,0.52 12.92,0.78 11.67,1.04 10.49,1.28 9.32,1.51 8.30,1.83 7.28,2.14 6.13,2.28 4.99,2.43 3.71,2.47 2.43,2.51 1.27,2.54 0.12,2.57 -0.18,2.55 -0.49,2.53 -0.78,2.43 -1.08,2.34 -1.34,2.17 -1.61,2.01 -1.83,1.79 -2.04,1.57 -2.20,1.30 -2.36,1.03 -2.45,0.73 -2.54,0.43 -2.56,0.12 -2.57,-0.18 -2.51,-0.48 -2.45,-0.79 -2.32,-1.07 -2.19,-1.35 -2.00,-1.60 -1.80,-1.84 -1.55,-2.03 -1.31,-2.22 -1.02,-2.34 -0.74,-2.47 -0.43,-2.52 -0.12,-2.57 -0.12,-2.57 L -0.12,-2.57 Z"></path></g><g transform="translate(79.0410969398713 201.11292826831277) rotate(0 13.591334165336207 4.19732378635382)" stroke="none"><path fill="#1971c2" d="M 0.69,-2.54 Q 0.69,-2.54 1.96,-2.20 3.22,-1.85 4.29,-1.45 5.35,-1.04 6.70,-0.50 8.04,0.02 9.49,0.64 10.93,1.26 11.99,1.82 13.04,2.38 14.13,3.02 15.21,3.67 16.30,3.93 17.38,4.20 18.63,4.57 19.88,4.94 21.01,5.16 22.14,5.38 23.39,5.27 24.64,5.16 26.42,5.52 28.19,5.89 28.00,5.74 27.82,5.59 28.23,5.75 28.65,5.91 29.01,6.16 29.38,6.41 29.68,6.74 29.97,7.07 30.18,7.47 30.39,7.86 30.49,8.29 30.60,8.72 30.60,9.17 30.60,9.61 30.50,10.04 30.39,10.47 30.19,10.87 29.98,11.26 29.69,11.59 29.39,11.93 29.03,12.18 28.66,12.43 28.25,12.59 27.83,12.75 27.39,12.80 26.95,12.86 26.51,12.80 26.07,12.75 24.95,12.45 23.82,12.14 22.39,11.75 20.97,11.36 19.92,11.00 18.87,10.65 17.89,10.17 16.91,9.68 15.66,9.13 14.41,8.58 13.19,8.16 11.97,7.74 10.86,7.43 9.75,7.12 8.65,6.90 7.55,6.68 6.00,6.12 4.46,5.57 3.42,5.26 2.39,4.95 1.23,4.29 0.07,3.63 -0.83,2.76 -1.74,1.89 -1.66,-0.56 -1.57,-3.02 -0.56,-3.80 0.45,-4.58 1.98,-4.41 3.51,-4.23 4.77,-3.91 6.03,-3.58 7.38,-3.14 8.73,-2.71 9.86,-2.11 10.99,-1.52 12.15,-0.90 13.32,-0.27 14.69,0.65 16.06,1.58 17.06,2.10 18.05,2.63 18.99,3.28 19.92,3.93 20.99,3.95 22.07,3.97 23.55,4.81 25.04,5.64 25.98,5.28 26.92,4.92 27.53,5.02 28.15,5.12 28.71,5.41 29.26,5.71 29.69,6.16 30.12,6.62 30.38,7.18 30.65,7.75 30.72,8.38 30.78,9.00 30.65,9.61 30.51,10.22 30.19,10.76 29.87,11.30 29.39,11.70 28.91,12.11 28.33,12.34 27.75,12.57 27.12,12.61 26.50,12.64 25.89,12.47 25.29,12.31 24.77,11.95 24.25,11.60 23.87,11.10 23.49,10.60 23.29,10.01 23.09,9.42 23.09,8.79 23.09,8.16 23.29,7.57 23.49,6.97 23.87,6.48 24.25,5.98 24.77,5.62 25.29,5.27 25.89,5.11 26.50,4.94 27.12,4.97 27.75,5.01 28.33,5.24 28.91,5.47 29.39,5.88 29.87,6.28 30.19,6.82 30.51,7.36 30.65,7.97 30.78,8.58 30.72,9.20 30.65,9.83 30.38,10.40 30.12,10.96 29.69,11.42 29.26,11.87 28.70,12.17 28.15,12.46 27.53,12.56 26.91,12.66 26.91,12.66 26.91,12.66 24.25,12.43 21.58,12.19 20.41,11.67 19.25,11.16 17.99,10.79 16.73,10.43 15.59,9.91 14.45,9.39 13.44,8.86 12.44,8.33 11.26,7.58 10.09,6.83 9.12,6.26 8.14,5.69 7.10,5.13 6.06,4.56 4.95,4.16 3.85,3.76 2.69,3.41 1.52,3.06 2.39,2.34 3.26,1.63 3.46,-0.62 3.65,-2.87 4.66,-2.30 5.67,-1.73 6.84,-1.39 8.02,-1.05 9.36,-0.66 10.71,-0.27 12.29,0.08 13.88,0.43 14.92,0.84 15.95,1.26 17.05,1.64 18.15,2.03 19.53,2.78 20.91,3.53 22.02,3.95 23.13,4.36 24.28,4.64 25.42,4.93 26.62,5.26 27.82,5.59 28.23,5.75 28.65,5.91 29.01,6.16 29.38,6.41 29.68,6.74 29.97,7.07 30.18,7.47 30.39,7.86 30.49,8.29 30.60,8.72 30.60,9.17 30.60,9.61 30.50,10.04 30.39,10.47 30.19,10.87 29.98,11.26 29.69,11.59 29.39,11.93 29.03,12.18 28.66,12.43 28.25,12.59 27.83,12.75 27.39,12.80 26.95,12.86 26.51,12.80 26.07,12.75 25.09,12.58 24.11,12.41 22.93,12.38 21.76,12.35 20.61,12.17 19.46,11.99 18.21,11.59 16.96,11.18 15.79,10.81 14.62,10.44 13.49,10.00 12.35,9.56 11.45,8.89 10.55,8.22 9.52,7.56 8.50,6.90 7.55,6.30 6.61,5.70 5.58,5.13 4.54,4.56 3.18,3.90 1.82,3.23 0.56,2.89 -0.69,2.54 -0.98,2.42 -1.28,2.30 -1.54,2.11 -1.79,1.93 -2.00,1.68 -2.20,1.44 -2.34,1.16 -2.49,0.87 -2.55,0.56 -2.62,0.25 -2.61,-0.06 -2.61,-0.38 -2.52,-0.68 -2.44,-0.99 -2.28,-1.27 -2.13,-1.55 -1.91,-1.78 -1.70,-2.01 -1.43,-2.19 -1.16,-2.36 -0.86,-2.47 -0.56,-2.57 -0.25,-2.60 0.06,-2.63 0.37,-2.59 0.69,-2.54 0.69,-2.54 L 0.69,-2.54 Z"></path></g></svg>