<svg version="1.1" xmlns="http://www.w3.org/2000/svg" viewBox="0 0 136.95125452503066 220.97388923799554" width="273.9025090500613" height="441.9477784759911">
  <!-- svg-source:excalidraw -->
  
  <defs>
    <style class="style-fonts">
      
    </style>
    
  </defs>
  <g stroke-linecap="round" transform="translate(12.210815059311471 10) rotate(0 37.5 35.416666666666515)"><path d="M9.61 9.68 C9.61 9.68, 9.61 9.68, 9.61 9.68 M9.61 9.68 C9.61 9.68, 9.61 9.68, 9.61 9.68 M3.14 33.69 C9.51 17.88, 15.14 14.34, 27.82 3.18 M2.46 29.94 C10.75 22.27, 15.92 11.25, 24.27 4.68 M5.85 43.56 C12.11 30.78, 20.96 26.43, 36.77 5.42 M3.35 39.42 C10.05 35.11, 18.18 26.78, 37.01 4.09 M8.33 52.85 C17.47 38.35, 29.85 16.69, 46.03 4.45 M4.35 51.3 C14.05 41.59, 22.55 32.2, 45.31 2.97 M8.75 55.4 C23.23 38.07, 45.36 17.45, 52.81 10.23 M10.53 57.72 C24.5 37.93, 40.7 20.7, 56.59 4.98 M14.69 64.38 C30.7 48.82, 48.77 31.28, 62.39 8.81 M17.72 63.99 C23.89 55.07, 32.86 41.26, 61.58 11.78 M25.06 69.01 C32.64 54.46, 43.92 38.43, 65.48 12.29 M21.32 68.43 C35.2 54.41, 51.54 37.38, 66.56 16.18 M28.81 71.56 C45.87 50.96, 63.35 29.65, 71.04 22.61 M33.86 70.48 C42.34 58.21, 52.74 47.53, 73.01 21.03 M41.32 73.44 C50.08 59.24, 60.9 53.86, 77.05 33.02 M40.29 67.93 C51.82 58.36, 65.36 46.17, 75.32 31.85 M58.75 65.56 C61.8 61.92, 68.52 47.07, 77.76 39.34 M55.19 66.4 C65.09 55.26, 72.4 46.68, 74.84 43.13" stroke="#ffffff" stroke-width="1" fill="none"></path><path d="M31.94 0.83 C38.76 -0.55, 48.78 3.03, 55.42 6.08 C62.06 9.14, 68.46 13.04, 71.79 19.16 C75.13 25.28, 76.58 35.6, 75.41 42.79 C74.24 49.97, 70.03 57.77, 64.77 62.27 C59.51 66.77, 51.08 68.78, 43.85 69.78 C36.63 70.79, 27.92 71.58, 21.41 68.31 C14.91 65.04, 8.12 56.62, 4.81 50.16 C1.5 43.7, 0.72 36.34, 1.55 29.56 C2.39 22.77, 4.5 14.5, 9.83 9.43 C15.16 4.37, 28.81 0.29, 33.51 -0.83 C38.21 -1.95, 37.56 1.79, 38.01 2.71 M41.67 0.91 C48.23 2.03, 56.65 6.34, 61.7 11.31 C66.75 16.27, 70.12 23.79, 71.98 30.69 C73.83 37.59, 76.01 47.03, 72.82 52.68 C69.64 58.34, 59.64 61.73, 52.85 64.63 C46.07 67.52, 38.7 70.45, 32.12 70.05 C25.55 69.65, 19.01 67.58, 13.42 62.25 C7.83 56.92, -0.04 44.82, -1.4 38.08 C-2.75 31.34, 1.89 27.56, 5.28 21.8 C8.68 16.05, 12.64 7.61, 18.99 3.57 C25.35 -0.47, 39.62 -2.14, 43.4 -2.45 C47.18 -2.75, 41.66 1.13, 41.67 1.74" stroke="#343a40" stroke-width="2" fill="none"></path></g><g stroke-linecap="round"><g transform="translate(25.547615417274983 71.25346702463048) rotate(0 9.143075820959666 39.1634592626383)" fill-rule="evenodd"><path d="M0.69 -3.58 C-2.1 0.86, -16.92 14.94, -18.4 28.77 C-19.89 42.6, -17.43 72.09, -8.2 79.4 C1.03 86.71, 31.21 80.28, 36.98 72.64 C42.74 65.01, 26.6 44.53, 26.39 33.58 C26.18 22.64, 38.37 11.45, 35.71 6.96 C33.04 2.47, 16.95 7.59, 10.41 6.63 C3.88 5.68, -1.13 2.18, -3.49 1.24" stroke="none" stroke-width="0" fill="#ffffff" fill-rule="evenodd"></path><path d="M-0.39 0.61 C-3.06 6.28, -13.82 18.28, -14.68 31.3 C-15.53 44.32, -13.85 72.09, -5.52 78.74 C2.81 85.39, 30.56 78.61, 35.31 71.2 C40.07 63.79, 22.69 44.11, 23.02 34.26 C23.35 24.42, 38.64 16.55, 37.3 12.11 C35.95 7.66, 21.33 9.25, 14.95 7.59 C8.57 5.93, 1.12 3.18, -0.99 2.16 M-4.04 -1.53 C-6.97 4.83, -14.98 20.72, -15.47 34.65 C-15.95 48.58, -14.32 75.47, -6.95 82.07 C0.41 88.67, 22.96 81.93, 28.72 74.25 C34.48 66.56, 26.92 46.54, 27.61 35.93 C28.31 25.33, 36.02 15.7, 32.9 10.59 C29.77 5.49, 15 6.64, 8.86 5.29 C2.72 3.95, -2.41 3.58, -3.95 2.53" stroke="#343a40" stroke-width="2" fill="none"></path></g></g><mask></mask><g transform="translate(65.51359179843962 54.02518716783834) rotate(0 0.00004999999998744897 0.00004999999998744897)" stroke="none"><path fill="#343a40" d="M 1.57,-1.57 Q 1.57,-1.57 1.77,-1.27 1.98,-0.98 2.09,-0.64 2.20,-0.29 2.19,0.05 2.18,0.41 2.05,0.75 1.93,1.09 1.70,1.37 1.48,1.65 1.18,1.84 0.87,2.04 0.52,2.12 0.18,2.21 -0.17,2.18 -0.53,2.15 -0.86,2.01 -1.19,1.87 -1.46,1.63 -1.73,1.39 -1.90,1.07 -2.08,0.76 -2.15,0.41 -2.21,0.05 -2.17,-0.29 -2.12,-0.65 -1.96,-0.97 -1.80,-1.29 -1.54,-1.54 -1.29,-1.80 -0.97,-1.96 -0.65,-2.12 -0.29,-2.17 0.06,-2.21 0.41,-2.15 0.76,-2.08 1.07,-1.90 1.39,-1.73 1.63,-1.46 1.87,-1.19 2.01,-0.86 2.15,-0.53 2.18,-0.17 2.21,0.18 2.12,0.52 2.03,0.87 1.84,1.18 1.65,1.48 1.37,1.70 1.09,1.93 0.75,2.05 0.41,2.18 0.05,2.19 -0.30,2.20 -0.64,2.09 -0.98,1.98 -1.27,1.77 -1.57,1.56 -1.57,1.57 -1.57,1.57 -1.73,1.35 -1.90,1.14 -2.01,0.90 -2.12,0.66 -2.16,0.39 -2.21,0.13 -2.20,-0.13 -2.18,-0.40 -2.10,-0.65 -2.02,-0.91 -1.88,-1.14 -1.74,-1.36 -1.55,-1.55 -1.36,-1.74 -1.14,-1.88 -0.91,-2.02 -0.65,-2.10 -0.40,-2.18 -0.13,-2.20 0.13,-2.21 0.39,-2.16 0.66,-2.12 0.90,-2.01 1.14,-1.90 1.35,-1.73 1.57,-1.57 1.57,-1.57 L 1.57,-1.57 Z"></path></g><g transform="translate(79.6909976550694 55.96197364141881) rotate(0 0 -0.721266575300433)" stroke="none"><path d="" stroke="#ffffff" stroke-width="0.5" fill="none"></path><path fill="#343a40" d="M 2.12,-0.66 Q 2.12,-0.66 2.15,-0.13 2.18,0.40 1.96,0.88 1.74,1.36 1.32,1.69 0.91,2.02 0.38,2.12 -0.13,2.21 -0.64,2.05 -1.14,1.90 -1.52,1.52 -1.90,1.14 -2.05,0.64 -2.21,0.13 -2.12,-0.38 -2.02,-0.91 -1.69,-1.32 -1.36,-1.74 -0.88,-1.96 -0.39,-2.18 0.13,-2.15 0.66,-2.11 1.11,-1.84 1.57,-1.56 1.84,-1.11 L 2.12,-0.66 Z"></path></g><g stroke-linecap="round"><g transform="translate(63.53877842652787 68.86613329911324) rotate(180.707313349537 6.842912605549145 -2.4813444014994275)"><path d="M0.53 0.16 C1.3 -0.64, 2.51 -4.38, 4.75 -4.69 C7 -5, 12.46 -2.19, 14.01 -1.69 M0.14 -0.24 C0.81 -1.2, 1.93 -5.13, 4.22 -5.52 C6.5 -5.91, 12.14 -3.05, 13.83 -2.59" stroke="#343a40" stroke-width="1" fill="none"></path></g></g><mask></mask><g stroke-linecap="round"><g transform="translate(60.06306646267308 136.3510609574696) rotate(0 19.63809829121965 25.795704881388247)"><path d="M0 0 C16.54 0.32, 32.36 -0.54, 39.28 -2.58 M0 0 C14.89 -0.71, 27.75 -1.66, 39.28 -2.58 M39.28 -2.58 C37.23 14.43, 38.94 35.26, 38.71 54.17 M39.28 -2.58 C39.39 16.59, 38.57 37.47, 38.71 54.17" stroke="#343a40" stroke-width="2" fill="none"></path></g></g><mask></mask><g stroke-linecap="round"><g transform="translate(23.74877332409801 153.180034441948) rotate(0 31.157990386139318 20.478807952935767)"><path d="M0 0 C17.57 0.34, 33.83 -2.38, 62.32 -2.48 M0 0 C23.1 -0.76, 47.14 -3.01, 62.32 -2.48 M62.32 -2.48 C61.27 12.16, 60.59 23.87, 57.9 43.44 M62.32 -2.48 C60.33 12.15, 58.74 26.79, 57.9 43.44" stroke="#343a40" stroke-width="2" fill="none"></path></g></g><mask></mask><g stroke-linecap="round"><g transform="translate(82.52390027511797 197.48631823065807) rotate(0 7.402623965815565 6.531727028660498)"><path d="M0.37 0.32 C2.75 2.51, 12.13 11.32, 14.61 13.49 M-0.1 0.01 C2.17 2.02, 11.54 10.67, 14.08 12.74" stroke="#343a40" stroke-width="2" fill="none"></path></g></g><mask></mask><g stroke-linecap="round"><g transform="translate(99.07094208105877 189.64824579626475) rotate(0 7.402623965815565 0.8708969371550666)"><path d="M-0.2 0.42 C2.29 0.71, 12.79 1.76, 15.25 2.02 M0.71 0.17 C3.12 0.26, 12.81 1.05, 15.05 1.2" stroke="#343a40" stroke-width="2" fill="none"></path></g></g><mask></mask><g stroke-linecap="round"><g transform="translate(62.94508977089822 144.70360694155625) rotate(0 24.55102582592542 -3.391918041740155)" fill-rule="evenodd"><path d="M0.47 -1.91 L20.42 -18.03 L57.71 -17.82 L35.24 8.86 L-5.52 11.14 L2.87 -0.35" stroke="none" stroke-width="0" fill="#ffffff" fill-rule="evenodd"></path><path d="M0 0 C6.63 -5.21, 12.31 -8.41, 21.64 -16.15 M0 0 C4.3 -3.12, 10.47 -6.38, 21.64 -16.15 M21.64 -16.15 C32.17 -17.59, 46.12 -18.21, 55.89 -16.8 M21.64 -16.15 C33.55 -16.08, 43.62 -17.46, 55.89 -16.8 M55.89 -16.8 C49.86 -9.25, 39.53 1.32, 33.27 10.01 M55.89 -16.8 C47 -7.45, 37.75 4.05, 33.27 10.01 M33.27 10.01 C19.35 10.79, 6.95 9.07, -6.78 10.01 M33.27 10.01 C25.23 10.26, 16.19 9.44, -6.78 10.01 M-6.78 10.01 C-4.66 7.34, -1.57 4.32, 2.26 0.32 M-6.78 10.01 C-4.48 8.23, -3.59 5.74, 2.26 0.32 M2.26 0.32 C1.29 0.02, 0.87 0.2, 0 0 M2.26 0.32 C1.48 0.27, 0.82 0.19, 0 0" stroke="#343a40" stroke-width="1" fill="none"></path></g></g><mask></mask><g stroke-linecap="round"><g transform="translate(62.66633163872598 144.3950871064635) rotate(0 24.55102582592542 -3.391918041740155)" fill-rule="evenodd"><path d="M0 0 C0 0, 0 0, 0 0 M0 0 C0 0, 0 0, 0 0 M-3.54 10.17 C-1.23 4.64, 6.16 1.12, 14.83 -10.96 M-3.54 10.17 C3.28 2.04, 10.14 -4.23, 14.83 -10.96 M1.45 10.53 C7.96 -0.15, 17.34 -7.76, 24.41 -15.88 M1.45 10.53 C5.71 5, 11.32 -0.52, 24.41 -15.88 M7.09 10.14 C12.66 3.32, 20.19 -4.69, 30.05 -16.28 M7.09 10.14 C12.84 4.42, 17.94 -3.27, 30.05 -16.28 M12.08 10.5 C21.46 -0.13, 30.62 -11.78, 35.04 -15.92 M12.08 10.5 C18.21 3.95, 22.82 -0.85, 35.04 -15.92 M17.72 10.1 C25.44 2.87, 34.65 -6.1, 40.68 -16.31 M17.72 10.1 C25.64 1.13, 33.48 -6.3, 40.68 -16.31 M22.71 10.46 C26.82 3.94, 35.01 -3.36, 46.32 -16.71 M22.71 10.46 C30.53 0.71, 38.71 -8.88, 46.32 -16.71 M28.35 10.07 C35.22 1.02, 39.85 -5.08, 51.31 -16.35 M28.35 10.07 C35.04 2.95, 40.32 -4.15, 51.31 -16.35 M-7.12 9.72 C-7.12 9.72, -7.12 9.72, -7.12 9.72 M-7.12 9.72 C-7.12 9.72, -7.12 9.72, -7.12 9.72 M-0.73 9.98 C-1.6 9.09, -2.94 7.78, -3.74 7.36 M-0.73 9.98 C-1.52 9.54, -2.18 8.67, -3.74 7.36 M5.67 10.24 C3.02 8.23, 0.08 5.12, -1.12 4.34 M5.67 10.24 C4.41 9.4, 3.01 7.99, -1.12 4.34 M11.32 9.85 C8.2 8.59, 6.18 5.16, 1.5 1.32 M11.32 9.85 C7.76 5.73, 4.16 3.11, 1.5 1.32 M17.71 10.11 C13.76 4, 7.96 -0.2, 2.62 -3.01 M17.71 10.11 C13.38 7.19, 9.5 4.12, 2.62 -3.01 M23.36 9.71 C19.86 3.44, 12.22 0.2, 6 -5.38 M23.36 9.71 C19.13 6.17, 13.35 1.69, 6 -5.38 M29.75 9.98 C25.26 5.36, 20.76 1.88, 9.38 -7.74 M29.75 9.98 C22.3 2.22, 13.69 -3.37, 9.38 -7.74 M34.64 8.92 C28.98 2.73, 24.79 0.56, 12.76 -10.1 M34.64 8.92 C26.13 1.49, 18.52 -4.68, 12.76 -10.1 M37.27 5.91 C31.1 -0.15, 25.43 -3.57, 15.38 -13.12 M37.27 5.91 C32.47 2.44, 26.79 -2.83, 15.38 -13.12 M39.89 2.89 C33.36 -2.43, 26.46 -8.01, 18.76 -15.48 M39.89 2.89 C35.14 -0.67, 30.38 -4.74, 18.76 -15.48 M42.51 -0.13 C36.92 -7.26, 29.41 -12.4, 22.89 -17.19 M42.51 -0.13 C38.14 -4.53, 33 -9.97, 22.89 -17.19 M44.38 -3.81 C38.42 -7.46, 32.96 -12.28, 28.54 -17.58 M44.38 -3.81 C41.92 -7.12, 36.96 -9.55, 28.54 -17.58 M47.01 -6.83 C43.82 -11.81, 38.3 -13.42, 34.93 -17.32 M47.01 -6.83 C44.22 -10.7, 40.08 -13.71, 34.93 -17.32 M49.63 -9.84 C46.63 -11.82, 45.05 -14.18, 40.58 -17.72 M49.63 -9.84 C47.63 -12.3, 44.93 -14.33, 40.58 -17.72 M52.26 -12.86 C50.67 -13.88, 49.27 -15.66, 46.22 -18.11 M52.26 -12.86 C51.32 -14.32, 50.05 -15.24, 46.22 -18.11 M54.88 -15.88 C54.18 -16.53, 53.47 -16.88, 52.62 -17.85 M54.88 -15.88 C54.41 -16.35, 53.93 -16.82, 52.62 -17.85" stroke="#868e96" stroke-width="0.5" fill="none"></path><path d="M0 0 C9.16 -5.77, 14.8 -12.74, 21.64 -16.15 M0 0 C6.05 -3.26, 10.57 -7.33, 21.64 -16.15 M21.64 -16.15 C32.29 -17.74, 42.89 -18.05, 55.89 -16.8 M21.64 -16.15 C32.2 -17.28, 44 -16.8, 55.89 -16.8 M55.89 -16.8 C45.52 -5.88, 40.4 2.6, 33.27 10.01 M55.89 -16.8 C48.71 -8.99, 42.88 -2.28, 33.27 10.01 M33.27 10.01 C20.69 9.23, 7.49 11.28, -6.78 10.01 M33.27 10.01 C19.35 9.35, 6.44 9.57, -6.78 10.01 M-6.78 10.01 C-3.63 6.55, -1.62 3.5, 2.26 0.32 M-6.78 10.01 C-4.76 6.9, -1.41 4.86, 2.26 0.32 M2.26 0.32 C1.74 0.31, 1.02 0.2, 0 0 M2.26 0.32 C1.43 0.28, 0.71 0, 0 0" stroke="#343a40" stroke-width="1" fill="none"></path></g></g><mask></mask><g stroke-linecap="round"><g transform="translate(96.58551205612298 153.44020188443574) rotate(0 15.182871234453842 -32.788541070150586)" fill-rule="evenodd"><path d="M-1.64 0.94 L6.33 -35.05 L31.05 -64.6 L21.8 -26.23 L-0.84 1.03" stroke="none" stroke-width="0" fill="#ffffff" fill-rule="evenodd"></path><path d="M0 0 C-0.37 -9.73, 1.31 -19.39, 5.49 -35.21 M0 0 C1.96 -11.3, 3.23 -23.67, 5.49 -35.21 M5.49 -35.21 C11.98 -44.01, 17.84 -48.26, 30.37 -65.58 M5.49 -35.21 C14.22 -45.34, 23.23 -54.82, 30.37 -65.58 M30.37 -65.58 C30.02 -57.36, 26.45 -47.1, 23.26 -26.81 M30.37 -65.58 C28.91 -58.6, 27.24 -50.33, 23.26 -26.81 M23.26 -26.81 C13.41 -16.72, 8.07 -8.31, 0 0 M23.26 -26.81 C15.76 -19.12, 9.15 -10.7, 0 0 M0 0 C0 0, 0 0, 0 0 M0 0 C0 0, 0 0, 0 0" stroke="#343a40" stroke-width="2" fill="none"></path></g></g><mask></mask><g stroke-linecap="round"><g transform="translate(54.65519828616539 96.46227352070491) rotate(0 19.98915165816163 16.714033950343037)"><path d="M-0.29 -0.84 C1.94 2.58, 6.67 13.74, 13.58 19.55 C20.5 25.36, 36.67 31.7, 41.18 34.05 M1.76 1.34 C3.76 4.46, 5.8 12.47, 12.35 17.58 C18.9 22.7, 36.23 29.15, 41.04 32.03" stroke="#343a40" stroke-width="2" fill="none"></path></g></g><mask></mask><g stroke-linecap="round"><g transform="translate(27.98043304786711 73.27109603102417) rotate(0 31.1351057826879 33.11374200127011)"><path d="M-0.55 0.29 C2.02 7.36, 6.04 31.54, 15.13 41.55 C24.23 51.56, 46.15 56.39, 54.01 60.35 C61.87 64.31, 61.04 64.28, 62.29 65.29 M1.36 -0.6 C3.91 6.19, 6.11 29.36, 14.81 39.75 C23.52 50.15, 45.62 57.41, 53.58 61.77 C61.54 66.13, 60.92 65.05, 62.55 65.9" stroke="#343a40" stroke-width="2" fill="none"></path></g></g><mask></mask></svg>