<svg version="1.1" xmlns="http://www.w3.org/2000/svg" viewBox="0 0 158.53611550589358 372.22384057125566" width="317.07223101178715" height="744.4476811425113">
  <!-- svg-source:excalidraw -->
  
  <defs>
    <style class="style-fonts">
      
    </style>
    
  </defs>
  <g stroke-opacity="0.8" fill-opacity="0.8" stroke-linecap="round" transform="translate(34.31007422916173 152.81181309611446) rotate(0 37.5 35.416666666666515)"><path d="M5.74 12.94 C5.74 12.94, 5.74 12.94, 5.74 12.94 M5.74 12.94 C5.74 12.94, 5.74 12.94, 5.74 12.94 M0.28 27.64 C13.65 18.04, 19.77 13.06, 27.84 0.09 M2.47 32.13 C10.08 19.18, 15.91 11.47, 24.89 3.13 M0.5 37.72 C15.14 28.16, 25.87 14.64, 38.98 5.04 M1.22 40.52 C12.16 27.01, 23.48 15.6, 35.06 1.31 M6.36 50.63 C14.66 37.4, 31.19 28.32, 49.81 -0.36 M4.91 49.53 C19.23 33.31, 33.91 16.31, 45.04 4.7 M10.79 59.64 C25.23 36.82, 39.68 22.95, 56.51 5.16 M10.11 60.04 C27.4 38.54, 44.6 17.26, 53 4.13 M18.62 64.07 C27.18 50.15, 37.27 42.04, 59.7 12.42 M14.11 61.97 C29.77 44.9, 44.19 31.78, 62.54 8.86 M23.21 65.58 C34.06 50.93, 47.04 32.1, 70.44 12.03 M22.74 69.43 C37.55 46.27, 56.52 26.49, 67.77 15.66 M32.29 68.84 C43.03 52.4, 61.27 36.31, 74.15 26.98 M31.23 68.29 C46.73 52.38, 61.97 34.8, 68.36 24.25 M43.24 71.35 C50.5 59.59, 54.16 52.47, 75.02 30.2 M38.69 68.84 C47.98 60.37, 58.07 54.77, 73.1 33.83 M55.66 70.15 C57.32 63.87, 59.84 59.75, 67.56 44.02 M51.79 67.38 C62.31 60.37, 68.5 53.71, 70.54 49.31" stroke="#ffffff" stroke-width="1" fill="none"></path><path d="M49.81 3.22 C56.8 4.64, 63.54 7.22, 67.47 12.75 C71.39 18.29, 73.17 29.16, 73.36 36.45 C73.55 43.73, 72.56 50.86, 68.62 56.47 C64.67 62.08, 57.05 67.91, 49.68 70.1 C42.3 72.3, 31.6 71.81, 24.36 69.65 C17.13 67.5, 10.24 63.23, 6.26 57.19 C2.28 51.15, 0.52 40.84, 0.47 33.41 C0.43 25.99, 1.44 18.1, 6 12.65 C10.56 7.19, 16.88 0.09, 27.83 0.68 C38.79 1.28, 63.91 9.18, 71.75 16.23 C79.59 23.27, 75.65 42.57, 74.88 42.95 M55.2 0.52 C60.87 2.57, 64.65 10.42, 67.91 16.47 C71.17 22.51, 75.47 29.26, 74.77 36.79 C74.08 44.32, 68.67 55.79, 63.75 61.63 C58.83 67.47, 52.21 70.51, 45.27 71.82 C38.33 73.12, 28.69 72.9, 22.1 69.45 C15.5 66.01, 9.02 57.17, 5.71 51.16 C2.4 45.15, 1.31 40.26, 2.24 33.38 C3.18 26.5, 6.24 15.73, 11.33 9.9 C16.41 4.07, 26.1 -0.5, 32.74 -1.61 C39.38 -2.72, 47.76 2.73, 51.15 3.23 C54.53 3.72, 52.75 0.81, 53.06 1.34" stroke="#000000" stroke-width="2" fill="none"></path></g><g stroke-linecap="round"><g stroke-opacity="0.8" fill-opacity="0.8" transform="translate(57.22674089582779 223.64514642944658) rotate(0 21.61788755093471 28.428002989956013)" fill-rule="evenodd"><path d="M0 0 C0 0, 0 0, 0 0 M0 0 C0 0, 0 0, 0 0 M1.15 10.43 C5.94 9.94, 8.97 1.8, 13.3 -2.46 M-1.24 12.73 C2.48 8.4, 5.14 6.75, 11.01 0.07 M2.65 22.41 C10.7 13.48, 14.14 2.9, 21.63 1.71 M1.16 23.91 C6.02 17.63, 11.19 10.58, 20.4 -1.32 M1.91 37.56 C9.45 25.79, 17.25 17.51, 38.85 -1.5 M-1.59 36.83 C12.57 22.31, 28.46 4.03, 37 -4.99 M-2.22 51.96 C9.86 42.99, 16.86 27.49, 40.56 -0.13 M-1.27 48.72 C9.1 37.39, 22.05 22.59, 40.67 3.64 M3.65 64.39 C16.97 42.82, 28.67 29.99, 43.59 12.06 M-1.21 61.36 C9.91 50.4, 23.01 37.17, 42.54 13.18 M7.03 65.66 C22.53 49.45, 34.77 38.44, 42.25 26.92 M9.91 61.95 C19.9 46.39, 31.49 33.03, 43.82 25.03 M21.09 64.99 C24.69 57.45, 34.23 44.14, 48.18 32.82 M20.58 64.31 C25.31 56.71, 30.63 52.07, 42.7 35.27 M28.66 59.12 C36.63 55.87, 40.24 54.37, 43.53 49.92 M31.24 60.63 C36.01 57.29, 41.85 52.33, 42.89 48.87" stroke="#ffffff" stroke-width="1" fill="none"></path><path d="M0.89 -2.22 C0.75 3.35, -1.29 24.98, -1.1 35.32 C-0.9 45.66, -4 56.24, 2.04 59.82 C8.08 63.39, 28.07 62.67, 35.15 56.78 C42.24 50.89, 44.14 34.37, 44.55 24.48 C44.96 14.58, 42.03 1.84, 37.59 -2.6 C33.15 -7.04, 24.03 -2.41, 17.9 -2.17 C11.77 -1.93, 3.56 -1.65, 0.82 -1.18 M-2.08 2.75 C-2.66 7.26, -4.54 20.82, -3.97 30.79 C-3.4 40.77, -5.04 58.05, 1.34 62.6 C7.71 67.16, 27.53 64.23, 34.28 58.14 C41.02 52.04, 40.66 36.48, 41.79 26.04 C42.92 15.59, 44.65 -0.56, 41.05 -4.54 C37.44 -8.51, 27.2 1.87, 20.16 2.19 C13.13 2.51, 2.49 -1.88, -1.16 -2.62" stroke="#000000" stroke-width="2" fill="none"></path></g></g><mask></mask><g stroke-linecap="round"><g stroke-opacity="0.8" fill-opacity="0.8" transform="translate(57.04147659908176 282.69212764776114) rotate(0 -15.385763686209202 38.464409215523574)"><path d="M1.27 2.91 C-4.22 15.19, -9.1 39.99, -5.73 57.88 M0.58 -0.84 C-0.88 19.6, -6.3 37.14, -9.28 59.38 M-4.88 59.8 C-11.63 60.77, -16.93 70.83, -30.78 79.53 M-7.38 55.66 C-13.4 62.74, -17.09 66.45, -30.54 78.19" stroke="#000000" stroke-width="2" fill="none"></path></g></g><mask></mask><g stroke-linecap="round"><g stroke-opacity="0.8" fill-opacity="0.8" transform="translate(97.50033666281797 283.83181384674083) rotate(0 10.827018890295221 33.05089977037551)"><path d="M-0.85 -3.84 C-3.47 18.23, 0.9 33, -0.91 65.2 M1.03 0.47 C-2.06 13.14, -2.54 30.56, -3.3 65.22 M-1.06 61.91 C5.84 67.54, 10.44 66.94, 20.25 62.99 M-3.11 64.68 C4.45 65.55, 10.73 66.4, 24.57 65.09" stroke="#000000" stroke-width="2" fill="none"></path></g></g><mask></mask><g stroke-linecap="round"><g stroke-opacity="0.8" fill-opacity="0.8" transform="translate(54.19226110163527 224.56813149986073) rotate(0 -19.94450848212341 23.93341017854752)"><path d="M-1.64 0.94 C-15.16 10.37, -31.24 21.81, -44.19 29.08 M-0.96 -0.61 C-11.81 8.36, -22.41 15.78, -43.32 29.12 M-41.87 30.44 C-26.5 30.35, -12.1 27.9, 1.72 29.66 M-42.57 29.04 C-33.27 29.03, -23.71 28.13, 3.51 30.36 M1.33 28.23 C-4.33 36.16, -13.08 43.22, -17.75 46.79 M2.91 30.18 C-3.89 34.69, -9.28 40.6, -17.03 47.35" stroke="#000000" stroke-width="2" fill="none"></path></g></g><mask></mask><g stroke-linecap="round"><g stroke-opacity="0.8" fill-opacity="0.8" transform="translate(98.85888530242755 223.35236203737685) rotate(0 21.901665658544516 -63.07679709660806)"><path d="M1.31 1.17 C6.76 -6.46, 22.7 -26.54, 30.01 -48.1 C37.32 -69.66, 42.74 -114.98, 45.17 -128.19 M-1.42 -0.66 C3.92 -8.96, 20.31 -31.67, 27.9 -52.59 C35.48 -73.51, 41.15 -114.06, 44.1 -126.18" stroke="#000000" stroke-width="2" fill="none"></path></g></g><mask></mask><g stroke-linecap="round"><g stroke-opacity="0.8" fill-opacity="0.8" transform="translate(140.0340167404911 122.60470000807135) rotate(0 3.942299818538004 -7.446566323905245)"><path d="M0.1 0.41 C1.41 -0.99, 7.99 -5.25, 8.47 -7.88 C8.95 -10.52, 3.85 -14.28, 2.98 -15.4 M-1.31 -0.42 C-0.15 -1.73, 7.21 -4.48, 7.83 -6.8 C8.45 -9.12, 3.06 -13.25, 2.4 -14.35" stroke="#000000" stroke-width="2" fill="none"></path></g></g><mask></mask><g stroke-linecap="round"><g stroke-opacity="0.8" fill-opacity="0.8" transform="translate(76.085077009001 106.22898132953077) rotate(0 -9.278924225064202 -31.239044891049616)" fill-rule="evenodd"><path d="M-21.91 -58.79 C-21.91 -58.79, -21.91 -58.79, -21.91 -58.79 M-21.91 -58.79 C-21.91 -58.79, -21.91 -58.79, -21.91 -58.79 M-29.72 -36.73 C-28.76 -44.63, -21.83 -44.65, -11.37 -63.8 M-31.78 -34.95 C-22.61 -46.85, -15.47 -56.48, -9.96 -60.02 M-27.88 -27.15 C-21.63 -34.17, -12.37 -39.29, 5.06 -60.19 M-30.84 -24.11 C-20.36 -35.56, -11.88 -44.36, -0.21 -61 M-23.97 -13.9 C-14.5 -32.31, -2.22 -47.18, 7.47 -58.64 M-27.88 -17.63 C-19.98 -26.11, -11.7 -31.79, 8.05 -57.57 M-19.03 -12.5 C-10.27 -23.44, -1.17 -34.12, 11.31 -52.46 M-23.8 -7.45 C-9.64 -21.47, -0.04 -33.59, 13.8 -50.49 M-15.62 -3.21 C-6.06 -11.16, -3.11 -17.12, 17.24 -37.36 M-19.12 -4.24 C-10.02 -14.84, 2.24 -23.42, 15.21 -39.1 M-11.11 2.53 C-4.71 -7.6, 4.94 -14.08, 8.97 -22.28 M-8.27 -1.02 C-5.14 -3.76, -2.89 -9.09, 10.57 -25.2" stroke="#fab005" stroke-width="1" fill="none"></path><path d="M1.37 -2.04 C-1.42 -2.6, -12.39 -0.91, -16.5 -2.42 C-20.61 -3.92, -20.76 -7.19, -23.3 -11.09 C-25.84 -15, -29.63 -21.72, -31.75 -25.84 C-33.87 -29.95, -36.55 -31.69, -36.03 -35.79 C-35.51 -39.89, -31.7 -46.39, -28.65 -50.44 C-25.59 -54.49, -22.64 -58.22, -17.7 -60.09 C-12.77 -61.95, -3.49 -62.67, 0.95 -61.63 C5.4 -60.58, 6.19 -56.79, 8.96 -53.84 C11.73 -50.89, 16.6 -47.83, 17.57 -43.93 C18.55 -40.02, 16.56 -33.86, 14.81 -30.41 C13.07 -26.96, 8.84 -25.79, 7.1 -23.23 C5.36 -20.66, 5.74 -19.23, 4.37 -15.02 C2.99 -10.82, -0.52 -0.77, -1.17 1.99 M-1.34 3.03 C-4.44 2.76, -14.47 2.35, -18.3 0.57 C-22.13 -1.2, -21.94 -3.5, -24.32 -7.62 C-26.71 -11.75, -31.29 -18.41, -32.62 -24.16 C-33.95 -29.91, -33.38 -37.58, -32.29 -42.12 C-31.2 -46.66, -28.63 -48.03, -26.09 -51.4 C-23.55 -54.76, -21.31 -60.54, -17.07 -62.3 C-12.82 -64.07, -5.65 -62.94, -0.61 -61.97 C4.42 -60.99, 11.01 -59.28, 13.15 -56.45 C15.29 -53.62, 11.66 -49.49, 12.23 -45 C12.79 -40.51, 16.72 -32.8, 16.56 -29.49 C16.39 -26.17, 13.16 -28.37, 11.22 -25.09 C9.29 -21.8, 7.37 -14.39, 4.93 -9.77 C2.48 -5.15, -2.89 0.82, -3.46 2.62" stroke="#000000" stroke-width="2" fill="none"></path></g></g><mask></mask><g stroke-linecap="round"><g stroke-opacity="0.8" fill-opacity="0.8" transform="translate(59.38301340388534 110.55914596789506) rotate(0 8.969626750895259 -0.6185949483378863)" fill-rule="evenodd"><path d="M0 0 C0 0, 0 0, 0 0 M0 0 C0 0, 0 0, 0 0" stroke="#ffffff" stroke-width="1" fill="none"></path><path d="M0.35 -0.5 C3.35 -0.52, 18.81 -0.92, 18.56 -0.95 C18.31 -0.99, 2.13 -1.08, -1.15 -0.73 M-0.93 -1.82 C1.91 -2.13, 17.59 -3.26, 17.93 -2.93 C18.28 -2.59, 4.38 -0.14, 1.15 0.2" stroke="#000000" stroke-width="2" fill="none"></path></g></g><mask></mask><g stroke-linecap="round"><g stroke-opacity="0.8" fill-opacity="0.8" transform="translate(61.23879824889809 117.36369039960817) rotate(0 6.8045444317137935 -0.3092974741684884)" fill-rule="evenodd"><path d="M0 0 C0 0, 0 0, 0 0 M0 0 C0 0, 0 0, 0 0" stroke="#ffffff" stroke-width="1" fill="none"></path><path d="M0.62 0.28 C2.64 0.14, 12.75 -1.49, 12.46 -1.35 C12.17 -1.22, 1.05 0.67, -1.13 1.1 M-0.52 -0.61 C1.82 -0.57, 14.29 -0.19, 14.57 -0.2 C14.85 -0.21, 3.72 -0.58, 1.18 -0.67" stroke="#000000" stroke-width="2" fill="none"></path></g></g><mask></mask><g stroke-linecap="round"><g stroke-opacity="0.8" fill-opacity="0.8" transform="translate(60.95919467843851 99.42443689781857) rotate(0 6.166050061253031 -14.85057018777323)"><path d="M0 0 C-0.47 -4.68, -3.12 -24.48, -2.85 -28.1 C-2.57 -31.71, 0.75 -21.41, 1.66 -21.67 C2.57 -21.94, 1.82 -29.97, 2.61 -29.7 C3.4 -29.43, 5.45 -20.25, 6.4 -20.07 C7.35 -19.89, 7.51 -28.72, 8.3 -28.63 C9.09 -28.54, 10 -19.49, 11.15 -19.53 C12.29 -19.58, 14.86 -32.06, 15.18 -28.9 C15.49 -25.73, 13.4 -5.26, 13.04 -0.54 M0 0 C-0.47 -4.68, -3.12 -24.48, -2.85 -28.1 C-2.57 -31.71, 0.75 -21.41, 1.66 -21.67 C2.57 -21.94, 1.82 -29.97, 2.61 -29.7 C3.4 -29.43, 5.45 -20.25, 6.4 -20.07 C7.35 -19.89, 7.51 -28.72, 8.3 -28.63 C9.09 -28.54, 10 -19.49, 11.15 -19.53 C12.29 -19.58, 14.86 -32.06, 15.18 -28.9 C15.49 -25.73, 13.4 -5.26, 13.04 -0.54" stroke="#000000" stroke-width="2" fill="none"></path></g></g><mask></mask><g stroke-linecap="round"><g stroke-opacity="0.8" fill-opacity="0.8" transform="translate(81.65243154403925 27.04882794231679) rotate(0 3.0929747416882947 -5.876652009207191)"><path d="M-1.13 1.1 C-0.01 -0.54, 4.47 -8.56, 5.57 -10.57 M0.48 0.63 C2.1 -1.25, 7.32 -9.81, 7.96 -12.07" stroke="#000000" stroke-width="2" fill="none"></path></g></g><mask></mask><g stroke-linecap="round"><g stroke-opacity="0.8" fill-opacity="0.8" transform="translate(53.815658868846185 28.90461278733045) rotate(0 -4.020867164194442 -8.969626750895713)"><path d="M-0.61 1.18 C-1.88 -1.86, -7.61 -14.05, -8.74 -17.18 M1.27 0.76 C0.49 -2.11, -4.88 -15.49, -6.39 -18.9" stroke="#000000" stroke-width="2" fill="none"></path></g></g><mask></mask><g stroke-linecap="round"><g stroke-opacity="0.8" fill-opacity="0.8" transform="translate(102.68465978751829 53.64841072083499) rotate(0 7.113841905882737 -3.0929747416880673)"><path d="M-0.69 0.76 C1.89 -0.41, 12.48 -4.75, 14.9 -5.82 M1.14 0.11 C3.68 -0.92, 12.36 -6.44, 14.31 -7.75" stroke="#000000" stroke-width="2" fill="none"></path></g></g><mask></mask><g stroke-linecap="round"><g stroke-opacity="0.8" fill-opacity="0.8" transform="translate(31.546240728692283 63.54592989423662) rotate(0 -8.660329276726543 -2.1650823191816926)"><path d="M0.67 0.37 C-2.16 -0.4, -14.92 -3.03, -17.72 -3.81 M-0.43 -0.49 C-3.4 -1.68, -16.24 -5.24, -18.88 -5.66" stroke="#000000" stroke-width="2" fill="none"></path></g></g><mask></mask><g stroke-opacity="0.8" fill-opacity="0.8" transform="translate(68.29365876155771 183.2490598725987) rotate(0 0.00004999999998744897 0.00004999999998744897)" stroke="none"><path fill="#000000" d="M 1.57,-1.57 Q 1.57,-1.57 1.77,-1.27 1.98,-0.98 2.09,-0.64 2.20,-0.29 2.19,0.05 2.18,0.41 2.05,0.75 1.93,1.09 1.70,1.37 1.48,1.65 1.18,1.84 0.87,2.04 0.52,2.12 0.18,2.21 -0.17,2.18 -0.53,2.15 -0.86,2.01 -1.19,1.87 -1.46,1.63 -1.73,1.39 -1.90,1.07 -2.08,0.76 -2.15,0.41 -2.21,0.05 -2.17,-0.29 -2.12,-0.65 -1.96,-0.97 -1.80,-1.29 -1.54,-1.54 -1.29,-1.80 -0.97,-1.96 -0.65,-2.12 -0.29,-2.17 0.06,-2.21 0.41,-2.15 0.76,-2.08 1.07,-1.90 1.39,-1.73 1.63,-1.46 1.87,-1.19 2.01,-0.86 2.15,-0.53 2.18,-0.17 2.21,0.18 2.12,0.52 2.03,0.87 1.84,1.18 1.65,1.48 1.37,1.70 1.09,1.93 0.75,2.05 0.41,2.18 0.05,2.19 -0.30,2.20 -0.64,2.09 -0.98,1.98 -1.27,1.77 -1.57,1.56 -1.57,1.57 -1.57,1.57 -1.73,1.35 -1.90,1.14 -2.01,0.90 -2.12,0.66 -2.16,0.39 -2.21,0.13 -2.20,-0.13 -2.18,-0.40 -2.10,-0.65 -2.02,-0.91 -1.88,-1.14 -1.74,-1.36 -1.55,-1.55 -1.36,-1.74 -1.14,-1.88 -0.91,-2.02 -0.65,-2.10 -0.40,-2.18 -0.13,-2.20 0.13,-2.21 0.39,-2.16 0.66,-2.12 0.90,-2.01 1.14,-1.90 1.35,-1.73 1.57,-1.57 1.57,-1.57 L 1.57,-1.57 Z"></path></g><g stroke-opacity="0.8" fill-opacity="0.8" transform="translate(89.93165602056615 178.92146042079702) rotate(0 0 -0.721266575300433)" stroke="none"><path d="" stroke="#ffffff" stroke-width="0.5" fill="none"></path><path fill="#000000" d="M 2.12,-0.66 Q 2.12,-0.66 2.15,-0.13 2.18,0.40 1.96,0.88 1.74,1.36 1.32,1.69 0.91,2.02 0.38,2.12 -0.13,2.21 -0.64,2.05 -1.14,1.90 -1.52,1.52 -1.90,1.14 -2.05,0.64 -2.21,0.13 -2.12,-0.38 -2.02,-0.91 -1.69,-1.32 -1.36,-1.74 -0.88,-1.96 -0.39,-2.18 0.13,-2.15 0.66,-2.11 1.11,-1.84 1.57,-1.56 1.84,-1.11 L 2.12,-0.66 Z"></path></g><g stroke-linecap="round"><g stroke-opacity="0.8" fill-opacity="0.8" transform="translate(46.90476982241751 196.6264179403633) rotate(180.707313349537 21.725995289184937 -2.626622748838315)"><path d="M0.36 -0.51 C4.95 -1.43, 20.89 -4.75, 28.07 -5.56 C35.25 -6.37, 40.93 -5.55, 43.46 -5.36 M-0.12 0.42 C4.59 -0.44, 21.88 -4.11, 29.08 -5.02 C36.29 -5.93, 40.76 -4.96, 43.11 -5.03" stroke="#000000" stroke-width="1" fill="none"></path></g></g><mask></mask></svg>