<svg version="1.1" xmlns="http://www.w3.org/2000/svg" viewBox="0 0 276.8133699269771 278.3767766202188" width="553.6267398539542" height="556.7535532404376">
  <!-- svg-source:excalidraw -->
  
  <defs>
    <style class="style-fonts">
      
    </style>
    
  </defs>
  <g stroke-opacity="0.8" fill-opacity="0.8" stroke-linecap="round" transform="translate(91.42210500438273 48.52683564882466) rotate(0 30.387591508135074 35.41666666666654)"><path d="M3.36 20.14 C3.36 20.14, 3.36 20.14, 3.36 20.14 M3.36 20.14 C3.36 20.14, 3.36 20.14, 3.36 20.14 M-0.33 37.25 C7.61 22.56, 17.2 15.31, 17.97 14.85 M0.34 33.53 C7.26 28.42, 11.39 25.75, 23.08 12.25 M2.96 47.68 C6.78 35.63, 19.57 30.81, 37.65 5.2 M1.56 46.72 C14.06 33.71, 25.57 20.57, 37.69 5.77 M9 53.13 C18.32 34.53, 33.83 16.39, 47.38 11.21 M7.07 50.93 C19.19 36.76, 32.63 21.11, 44.68 7.68 M8.57 60.06 C26.55 45.13, 45.06 21.39, 50.71 11.72 M11.71 57.32 C27.59 40.8, 45.57 19.66, 54.38 9.12 M13.39 67.46 C32.8 50.37, 45.92 31.15, 55.64 17.26 M17.41 65.16 C26.98 51.77, 37.91 41.47, 59.86 18.34 M26.75 68.89 C28.77 56.57, 42.88 51.86, 62.21 27.34 M23 70.78 C38.22 52.35, 49.8 37.11, 63.72 24.95 M33.43 74.7 C44.44 58.53, 63.8 40.54, 69.22 29.05 M29.29 72.65 C40.94 64.76, 48.5 55.6, 67.88 33.37" stroke="#ffffff" stroke-width="1" fill="none"></path><path d="M34.21 0.55 C40.48 0.71, 47.6 2.95, 52.07 7.52 C56.54 12.09, 59.64 21.13, 61.03 27.99 C62.42 34.85, 63.11 42.16, 60.4 48.68 C57.7 55.19, 50.03 63.27, 44.78 67.07 C39.54 70.87, 34.54 72.61, 28.93 71.5 C23.33 70.39, 16.03 64.99, 11.17 60.4 C6.3 55.82, 1.03 50.75, -0.23 43.99 C-1.49 37.23, 0.93 25.99, 3.61 19.85 C6.29 13.71, 9.41 9.83, 15.85 7.14 C22.28 4.46, 36.29 3.14, 42.21 3.75 C48.13 4.36, 51.15 10.46, 51.37 10.78 M33.59 -1.72 C38.48 -1.89, 43.2 4.2, 48.03 9.57 C52.85 14.93, 61.01 23.69, 62.51 30.47 C64.02 37.26, 59.75 43.87, 57.05 50.28 C54.36 56.68, 51.38 65.31, 46.32 68.89 C41.26 72.47, 32.46 72.59, 26.7 71.75 C20.94 70.91, 16.06 68.79, 11.77 63.87 C7.48 58.96, 2.54 49.52, 0.97 42.25 C-0.6 34.97, 0.09 26.86, 2.36 20.23 C4.62 13.61, 9.23 5.62, 14.58 2.51 C19.92 -0.61, 31.73 2.15, 34.41 1.55 C37.09 0.96, 31.15 -1.54, 30.65 -1.05" stroke="#000000" stroke-width="2" fill="none"></path></g><g stroke-linecap="round"><g stroke-opacity="0.8" fill-opacity="0.8" transform="translate(125.67087493235954 189.86687284470435) rotate(0 6.522798227431849 34.32517252168418)"><path d="M-3.35 -3.33 C1.31 17.09, 0.7 30.44, -4.72 70.08 M1.44 0.96 C-2.19 27.65, -7.63 53.27, -6.56 69.74 M-10 68.73 C-3.57 65.45, 6.1 65.73, 20.33 71.53 M-8.58 68.89 C5.17 70.66, 13.19 69.41, 20.31 70.61" stroke="#000000" stroke-width="2" fill="none"></path></g></g><mask></mask><g stroke-linecap="round"><g stroke-opacity="0.8" fill-opacity="0.8" transform="translate(80.05492343160381 185.88935451469268) rotate(0 -17.885998624508602 40.88228257030505)"><path d="M2.82 0.88 C-0.58 21.47, -5.4 48.66, -6.32 76.01 M0.78 0.53 C-3.14 16.42, -3.2 36.17, -12.2 77.97 M-12.29 74.13 C-18.24 76.43, -30.2 83.63, -32.21 82.11 M-8.59 78.45 C-17.16 78.45, -22.07 81.15, -36.27 82.49" stroke="#000000" stroke-width="2" fill="none"></path></g></g><mask></mask><g stroke-linecap="round"><g stroke-opacity="0.8" fill-opacity="0.8" transform="translate(131.157776644485 122.01078799859141) rotate(0 15.63882520641664 7.756987409542489)"><path d="M3.85 -1.97 C8.56 9.94, 16.12 16.11, 24 41.81 M-1.92 -1.07 C10 14.69, 17.05 28.25, 28.86 37.38 M29.13 36.64 C26.7 31.98, 28.94 19.65, 21.35 3.66 M26.13 39.4 C25.78 30.68, 23.94 19.17, 24.9 8.32 M22.5 6.46 C19.21 2.17, 22.63 -9.05, 16.12 -15.52 M25.26 8.87 C22.29 1.61, 18.86 -7.96, 18.67 -14.56 M19.89 -11.35 C23.13 -16.73, 29.33 -17.69, 30.3 -20.91 M17.51 -12.45 C20.53 -14.58, 23.61 -19.44, 31.91 -24.65" stroke="#000000" stroke-width="2" fill="none"></path></g></g><mask></mask><g stroke-linecap="round"><g stroke-opacity="0.8" fill-opacity="0.8" transform="translate(94.52811764453259 120.21861961770782) rotate(0 -37.25952336903197 41.13958109558598)"><path d="M2.18 1.62 C-15.61 18.64, -43.15 42.09, -62.38 63.39 M0.34 1.29 C-24.18 20.83, -41.26 38.17, -64.16 60.8 M-63.91 64.72 C-62.94 66.91, -71.43 68.05, -73.65 85.55 M-63.94 63.8 C-68.94 70.57, -71.4 79.12, -74.35 81.75" stroke="#000000" stroke-width="2" fill="none"></path></g></g><mask></mask><g stroke-linecap="round"><g stroke-opacity="0.8" fill-opacity="0.8" transform="translate(28.95207021872261 185.88935451469268) rotate(0 0.6387856651608672 7.026642316771358)"><path d="M1.38 -0.23 C-0.63 4.54, 1.39 7.59, 1.65 12.7 M-0.7 0.46 C1.02 2.91, 0.7 6.56, 0.83 14.44" stroke="#000000" stroke-width="2" fill="none"></path></g></g><mask></mask><g stroke-linecap="round"><g stroke-opacity="0.8" fill-opacity="0.8" transform="translate(28.95207021872261 180.77906919340575) rotate(0 -8.942999312254187 4.47149965612698)"><path d="M-1.46 1.44 C-5.05 3.79, -11.56 4.14, -18.95 9.28 M0.97 -0.78 C-6.54 2.86, -13.75 7.19, -18.46 9.04" stroke="#000000" stroke-width="2" fill="none"></path></g></g><mask></mask><g stroke-linecap="round"><g stroke-opacity="0.8" fill-opacity="0.8" transform="translate(31.50721287936608 184.61178318437095) rotate(0 5.749070986449169 0.6387856651608672)"><path d="M0.55 0.45 C3.56 -0.83, 5.9 0.84, 12.24 0.13 M0.04 -0.3 C3.85 0.88, 8.09 1.08, 11.92 1.79" stroke="#000000" stroke-width="2" fill="none"></path></g></g><mask></mask><g stroke-linecap="round"><g stroke-opacity="0.8" fill-opacity="0.8" transform="translate(129.88020531416328 120.73321666826786) rotate(0 -22.57637436641062 35.771997249017204)" fill-rule="evenodd"><path d="M-33.33 -1.15 C-33.33 -1.15, -33.33 -1.15, -33.33 -1.15 M-33.33 -1.15 C-33.33 -1.15, -33.33 -1.15, -33.33 -1.15 M-31.6 13.18 C-29.02 11.71, -28.14 7.76, -25.52 -3.29 M-33.63 10.46 C-29.97 8.95, -27.31 4.25, -22.26 0.69 M-30.58 26.44 C-32.17 20.71, -25.62 14.95, -15.17 -2.69 M-32.86 22.9 C-27.62 15.93, -21.4 7.98, -12.8 -0.12 M-43.85 45.41 C-32.94 33.21, -15.79 16.52, -7.35 0.46 M-44.25 48.85 C-30.42 33.99, -19.81 19.11, -2.21 2.25 M-46.77 69.91 C-29.66 43.83, -10.93 24.32, -1.96 6.8 M-47.86 67.67 C-36.48 53.16, -25.73 37.73, 0.11 8.08 M-42.22 73.75 C-31.9 58.2, -26.44 49.47, 2.32 21.66 M-42.4 72.84 C-26.93 52.68, -9.29 31.77, 1.64 18.69 M-37.3 75.68 C-22.95 57.73, -12.82 47.29, 5.55 29.69 M-35.38 73.15 C-21.37 59.77, -9.89 46.4, 4.14 26.97 M-23.91 71.67 C-17.67 65.22, -3.96 52.61, -0.81 39.11 M-24.5 75.81 C-17.12 64.12, -6.72 53.31, 3.5 40.47 M-15.73 77.6 C-12.9 72.86, -5.98 68.44, -3.29 62.02 M-15.55 72.65 C-10.22 68.52, -6.21 62.35, -0.8 60.77" stroke="#ffffff" stroke-width="1" fill="none"></path><path d="M1.09 0.75 C1.08 5.78, 3.78 19.2, 1.98 31.51 C0.17 43.83, -0.66 68.5, -9.75 74.62 C-18.85 80.75, -48.89 77.09, -52.6 68.27 C-56.31 59.46, -35.27 33.55, -32.01 21.72 C-28.74 9.89, -35.94 0.42, -33.03 -2.73 C-30.12 -5.88, -19.78 2.32, -14.54 2.82 C-9.3 3.32, -4.36 0.33, -1.6 0.27 M-1.77 -1.32 C-1.14 3.94, 8.51 22.44, 6.92 34.33 C5.33 46.23, -1.23 65.25, -11.3 70.07 C-21.38 74.89, -49.74 71.34, -53.52 63.24 C-57.3 55.14, -37.99 31.56, -34 21.46 C-30.01 11.37, -32.93 6.17, -29.59 2.67 C-26.25 -0.82, -19.54 1, -13.98 0.49 C-8.42 -0.02, 1.56 -0.4, 3.75 -0.39" stroke="#000000" stroke-width="2" fill="none"></path></g></g><mask></mask><g stroke-linecap="round"><g stroke-opacity="0.8" fill-opacity="0.8" transform="translate(140.68042320624522 86.36702381897305) rotate(0 10.862577562589877 4.456442076960229)" fill-rule="evenodd"><path d="M1.76 2.18 C2.96 4.39, 2.8 11.92, 5.78 13.5 C8.76 15.08, 17.7 14.58, 19.67 11.67 C21.64 8.77, 21.04 -2.08, 17.6 -3.93 C14.16 -5.78, 1.89 -0.48, -0.97 0.58" stroke="none" stroke-width="0" fill="#fa5252" fill-rule="evenodd"></path><path d="M-1.15 -0.64 C-0.27 1.94, 2.16 13.72, 5.77 15.81 C9.39 17.91, 18.7 15.74, 20.54 11.93 C22.37 8.12, 20.17 -4.97, 16.76 -7.06 C13.35 -9.15, 3 -1.91, 0.08 -0.62 M0.44 1.64 C1.14 3.85, 1.2 12.7, 4.93 14.1 C8.66 15.49, 21.3 13.42, 22.81 10 C24.31 6.58, 17.99 -4.68, 13.96 -6.44 C9.93 -8.2, 0.94 -1.62, -1.35 -0.56" stroke="#000000" stroke-width="2" fill="none"></path></g></g><mask></mask><g stroke-linecap="round"><g stroke-opacity="0.8" fill-opacity="0.8" transform="translate(158.9857496059401 79.09796756932485) rotate(0 22.00368275498954 -4.177914447150215)"><path d="M0 0 C4.27 -4.64, 18.29 -30.17, 25.62 -27.85 C32.96 -25.53, 47.07 6.03, 44.01 13.93 C40.94 21.82, 13.37 18.57, 7.24 19.5 M0 0 C4.27 -4.64, 18.29 -30.17, 25.62 -27.85 C32.96 -25.53, 47.07 6.03, 44.01 13.93 C40.94 21.82, 13.37 18.57, 7.24 19.5" stroke="#000000" stroke-width="2" fill="none"></path></g></g><mask></mask><g stroke-linecap="round"><g stroke-opacity="0.8" fill-opacity="0.8" transform="translate(149.5440605792694 101.94934052240353) rotate(0 8.077301264489734 5.57055259619986)"><path d="M0 0 C0.93 2.23, 2.88 11.88, 5.57 13.37 C8.26 14.85, 15.13 11.51, 16.15 8.91 C17.18 6.31, 12.44 -0.37, 11.7 -2.23 M0 0 C0.93 2.23, 2.88 11.88, 5.57 13.37 C8.26 14.85, 15.13 11.51, 16.15 8.91 C17.18 6.31, 12.44 -0.37, 11.7 -2.23" stroke="#000000" stroke-width="2" fill="none"></path></g></g><mask></mask><g stroke-linecap="round"><g stroke-opacity="0.8" fill-opacity="0.8" transform="translate(205.78646295312524 49.586146118124475) rotate(0 4.456442076959775 9.469939413539578)"><path d="M0.53 -0.43 C2.12 2.62, 7.61 15.38, 8.95 18.66 M0.14 0.54 C1.7 3.63, 6.94 16.24, 8.54 19.21" stroke="#000000" stroke-width="2" fill="none"></path></g></g><mask></mask><g stroke-linecap="round"><g stroke-opacity="0.8" fill-opacity="0.8" transform="translate(211.9140708089451 31.760377810283558) rotate(0 15.87607489916968 20.611044605939696)"><path d="M0.08 -0.62 C4.22 1.69, 20.82 5.92, 25.98 12.92 C31.15 19.91, 29.96 36.44, 31.07 41.34 M-1.33 1.67 C3.09 3.71, 23.08 4.3, 28.3 11.14 C33.51 17.98, 29.1 37.86, 29.94 42.72" stroke="#000000" stroke-width="2" fill="none"></path></g></g><mask></mask><g stroke-linecap="round"><g stroke-opacity="0.8" fill-opacity="0.8" transform="translate(228.06867333792502 10.035222685104259) rotate(0 18.93987882707978 28.409818240619188)"><path d="M-0.76 0.66 C4.59 2.64, 25.6 1.72, 32.18 11.26 C38.76 20.79, 37.78 50.42, 38.74 57.89 M1.05 -0.04 C6.78 2.21, 28.3 3.5, 34.53 12.86 C40.76 22.21, 37.81 48.79, 38.43 56.1" stroke="#000000" stroke-width="2" fill="none"></path></g></g><mask></mask><g stroke-opacity="0.8" fill-opacity="0.8" transform="translate(122.86577731590182 71.08150705028459) rotate(0 0.00004999999998744897 0.00004999999998744897)" stroke="none"><path fill="#000000" d="M 1.57,-1.57 Q 1.57,-1.57 1.77,-1.27 1.98,-0.98 2.09,-0.64 2.20,-0.29 2.19,0.05 2.18,0.41 2.05,0.75 1.93,1.09 1.70,1.37 1.48,1.65 1.18,1.84 0.87,2.04 0.52,2.12 0.18,2.21 -0.17,2.18 -0.53,2.15 -0.86,2.01 -1.19,1.87 -1.46,1.63 -1.73,1.39 -1.90,1.07 -2.08,0.76 -2.15,0.41 -2.21,0.05 -2.17,-0.29 -2.12,-0.65 -1.96,-0.97 -1.80,-1.29 -1.54,-1.54 -1.29,-1.80 -0.97,-1.96 -0.65,-2.12 -0.29,-2.17 0.06,-2.21 0.41,-2.15 0.76,-2.08 1.07,-1.90 1.39,-1.73 1.63,-1.46 1.87,-1.19 2.01,-0.86 2.15,-0.53 2.18,-0.17 2.21,0.18 2.12,0.52 2.03,0.87 1.84,1.18 1.65,1.48 1.37,1.70 1.09,1.93 0.75,2.05 0.41,2.18 0.05,2.19 -0.30,2.20 -0.64,2.09 -0.98,1.98 -1.27,1.77 -1.57,1.56 -1.57,1.57 -1.57,1.57 -1.73,1.35 -1.90,1.14 -2.01,0.90 -2.12,0.66 -2.16,0.39 -2.21,0.13 -2.20,-0.13 -2.18,-0.40 -2.10,-0.65 -2.02,-0.91 -1.88,-1.14 -1.74,-1.36 -1.55,-1.55 -1.36,-1.74 -1.14,-1.88 -0.91,-2.02 -0.65,-2.10 -0.40,-2.18 -0.13,-2.20 0.13,-2.21 0.39,-2.16 0.66,-2.12 0.90,-2.01 1.14,-1.90 1.35,-1.73 1.57,-1.57 1.57,-1.57 L 1.57,-1.57 Z"></path></g><g stroke-opacity="0.8" fill-opacity="0.8" transform="translate(143.82528269450154 70.17022420773685) rotate(0 0.00004999999998744897 0.00004999999998744897)" stroke="none"><path fill="#000000" d="M 1.57,-1.57 Q 1.57,-1.57 1.77,-1.27 1.98,-0.98 2.09,-0.64 2.20,-0.29 2.19,0.05 2.18,0.41 2.05,0.75 1.93,1.09 1.70,1.37 1.48,1.65 1.18,1.84 0.87,2.04 0.52,2.12 0.18,2.21 -0.17,2.18 -0.53,2.15 -0.86,2.01 -1.19,1.87 -1.46,1.63 -1.73,1.39 -1.90,1.07 -2.08,0.76 -2.15,0.41 -2.21,0.05 -2.17,-0.29 -2.12,-0.65 -1.96,-0.97 -1.80,-1.29 -1.54,-1.54 -1.29,-1.80 -0.97,-1.96 -0.65,-2.12 -0.29,-2.17 0.06,-2.21 0.41,-2.15 0.76,-2.08 1.07,-1.90 1.39,-1.73 1.63,-1.46 1.87,-1.19 2.01,-0.86 2.15,-0.53 2.18,-0.17 2.21,0.18 2.12,0.52 2.03,0.87 1.84,1.18 1.65,1.48 1.37,1.70 1.09,1.93 0.75,2.05 0.41,2.18 0.05,2.19 -0.30,2.20 -0.64,2.09 -0.98,1.98 -1.27,1.77 -1.57,1.56 -1.57,1.57 -1.57,1.57 -1.73,1.35 -1.90,1.14 -2.01,0.90 -2.12,0.66 -2.16,0.39 -2.21,0.13 -2.20,-0.13 -2.18,-0.40 -2.10,-0.65 -2.02,-0.91 -1.88,-1.14 -1.74,-1.36 -1.55,-1.55 -1.36,-1.74 -1.14,-1.88 -0.91,-2.02 -0.65,-2.10 -0.40,-2.18 -0.13,-2.20 0.13,-2.21 0.39,-2.16 0.66,-2.12 0.90,-2.01 1.14,-1.90 1.35,-1.73 1.57,-1.57 1.57,-1.57 L 1.57,-1.57 Z"></path></g><g stroke-opacity="0.8" fill-opacity="0.8" transform="translate(132.88988858392872 86.5733153735979) rotate(0 0.00004999999998744897 0.00004999999998744897)" stroke="none"><path fill="#000000" d="M 3.14,-3.14 Q 3.14,-3.14 3.55,-2.55 3.97,-1.97 4.18,-1.28 4.40,-0.59 4.38,0.11 4.36,0.83 4.11,1.51 3.86,2.18 3.41,2.74 2.96,3.30 2.36,3.69 1.75,4.07 1.05,4.25 0.36,4.42 -0.35,4.36 -1.07,4.30 -1.73,4.02 -2.39,3.74 -2.92,3.26 -3.46,2.78 -3.81,2.15 -4.16,1.53 -4.30,0.82 -4.43,0.11 -4.34,-0.59 -4.24,-1.30 -3.92,-1.94 -3.60,-2.59 -3.09,-3.09 -2.59,-3.60 -1.94,-3.92 -1.30,-4.24 -0.59,-4.34 0.12,-4.43 0.82,-4.30 1.53,-4.16 2.15,-3.81 2.78,-3.46 3.26,-2.92 3.74,-2.39 4.02,-1.73 4.31,-1.07 4.36,-0.35 4.42,0.36 4.25,1.05 4.07,1.75 3.69,2.36 3.30,2.96 2.74,3.41 2.18,3.86 1.51,4.11 0.83,4.36 0.11,4.38 -0.60,4.40 -1.28,4.18 -1.97,3.97 -2.55,3.55 -3.14,3.13 -3.14,3.14 -3.14,3.14 -3.47,2.71 -3.80,2.29 -4.02,1.80 -4.24,1.32 -4.33,0.79 -4.43,0.26 -4.40,-0.26 -4.36,-0.80 -4.20,-1.31 -4.04,-1.82 -3.77,-2.28 -3.49,-2.73 -3.11,-3.11 -2.73,-3.49 -2.28,-3.77 -1.82,-4.05 -1.31,-4.20 -0.80,-4.36 -0.26,-4.40 0.26,-4.43 0.79,-4.33 1.32,-4.24 1.80,-4.02 2.29,-3.80 2.71,-3.47 3.14,-3.14 3.14,-3.14 L 3.14,-3.14 Z"></path></g></svg>