<svg version="1.1" xmlns="http://www.w3.org/2000/svg" viewBox="0 0 140.2466592965393 220.9369200659653" width="280.4933185930786" height="441.8738401319306">
  <!-- svg-source:excalidraw -->
  
  <defs>
    <style class="style-fonts">
      
    </style>
    
  </defs>
  <rect x="0" y="0" width="140.2466592965393" height="220.9369200659653" fill="#ffffff"></rect><g stroke-linecap="round" transform="translate(15.5062198308201 10) rotate(0 37.5 35.416666666666515)"><path d="M9.67 9.73 C9.67 9.73, 9.67 9.73, 9.67 9.73 M9.67 9.73 C9.67 9.73, 9.67 9.73, 9.67 9.73 M5.68 32.69 C11.87 23.85, 13.61 17.52, 28.03 3.34 M3.9 28.03 C9.95 22.28, 18.89 12.74, 24.3 4.48 M5.54 41.56 C13.53 29.78, 30.39 12.17, 33.12 6.05 M5.36 39.36 C15.77 27.72, 30.24 13.01, 33.71 5.11 M1.78 50.83 C21.56 37.3, 39 20.27, 43.7 5.88 M6.8 51.46 C12.85 39.26, 24.41 32.64, 44.24 3.94 M10.43 59.39 C20.45 45.39, 26.62 36.01, 53.92 7.95 M11.08 59.32 C26.71 40.52, 43.12 21.17, 58.4 3.82 M18.52 60.64 C31.53 46.37, 46.65 30.26, 59.96 5.65 M14.46 63.21 C26.05 50.99, 36.52 37.28, 63.72 10.21 M24.18 72.67 C31.6 55.22, 44.6 41.57, 68 16.75 M23.29 70.39 C35.54 50.24, 50.99 37.49, 69.16 14.73 M30.39 73.03 C45.74 50.83, 62.68 35.08, 78.83 21.8 M32.21 69.41 C40.76 61.25, 48.23 51.82, 74.25 21.06 M36.73 71.78 C47.8 64.37, 56.66 52.45, 77.53 30.34 M40.4 74.57 C48.53 65.13, 55.32 52.77, 75.26 30.67 M48.3 77.94 C55.04 65.03, 66.98 57.8, 78.86 41.03 M49.05 75.95 C54.36 69.47, 61.89 59.62, 79.09 42.49" stroke="#ffffff" stroke-width="1" fill="none"></path><path d="M31.98 1.88 C38.72 0.56, 49.13 1.24, 55.83 3.9 C62.52 6.56, 69.03 11.8, 72.15 17.84 C75.27 23.87, 75.7 33.28, 74.56 40.11 C73.41 46.93, 70.34 53.43, 65.27 58.8 C60.2 64.18, 51.75 70.84, 44.14 72.36 C36.54 73.87, 26.62 71.59, 19.64 67.89 C12.66 64.19, 5.25 56.71, 2.29 50.13 C-0.68 43.56, 0.65 35.12, 1.85 28.43 C3.04 21.74, 2.5 14.73, 9.45 9.99 C16.4 5.25, 36.71 1.23, 43.55 -0.01 C50.39 -1.24, 51.14 1.79, 50.51 2.59 M15.63 3.5 C20.63 -1.14, 29.29 -2.6, 36.77 -2.12 C44.25 -1.65, 54.28 1.57, 60.5 6.37 C66.73 11.16, 72.07 20.17, 74.12 26.63 C76.17 33.1, 75.03 38.82, 72.81 45.13 C70.59 51.45, 66.53 60.11, 60.82 64.51 C55.1 68.92, 46.72 71.57, 38.53 71.56 C30.34 71.55, 18.21 69.32, 11.65 64.47 C5.1 59.61, 1.21 49.29, -0.8 42.43 C-2.81 35.57, -3.54 29.42, -0.42 23.3 C2.71 17.18, 14.6 8.07, 17.96 5.71 C21.32 3.35, 19.83 8.29, 19.74 9.12" stroke="#343a40" stroke-width="2" fill="none"></path></g><g stroke-linecap="round"><g transform="translate(28.843020188783612 71.25346702463048) rotate(0 9.143075820959666 39.1634592626383)" fill-rule="evenodd"><path d="M-2.96 -3.5 C-5.5 1.96, -17.42 22.38, -18.05 35.77 C-18.67 49.17, -14.93 71.68, -6.71 76.88 C1.51 82.08, 25.77 74.75, 31.27 66.99 C36.77 59.23, 25.33 39.42, 26.29 30.31 C27.26 21.2, 39.51 17, 37.06 12.34 C34.6 7.69, 18.27 4.94, 11.56 2.36 C4.86 -0.22, -1.21 -2.44, -3.19 -3.13" stroke="none" stroke-width="0" fill="#ffffff" fill-rule="evenodd"></path><path d="M-0.43 2.35 C-3.19 7.8, -18.18 19.23, -18.8 32.18 C-19.43 45.12, -12.74 73.38, -4.17 80.03 C4.4 86.68, 28.28 79.92, 32.62 72.07 C36.95 64.22, 21.58 42.91, 21.87 32.93 C22.15 22.96, 36.18 16.51, 34.31 12.22 C32.44 7.93, 15.9 9.4, 10.64 7.18 C5.38 4.97, 4.28 0.56, 2.73 -1.05 M-4.11 1.16 C-5.72 7.17, -13.07 23.62, -13.2 36 C-13.32 48.38, -12.6 70.27, -4.87 75.43 C2.86 80.59, 28.08 73.87, 33.2 66.94 C38.32 60.01, 25.21 43.24, 25.83 33.88 C26.46 24.51, 39.43 15.63, 36.93 10.76 C34.44 5.9, 16.71 6.87, 10.85 4.67 C4.99 2.47, 3.91 -1.91, 1.78 -2.43" stroke="#343a40" stroke-width="2" fill="none"></path></g></g><mask></mask><g transform="translate(68.80899656994825 54.02518716783834) rotate(0 0.00004999999998744897 0.00004999999998744897)" stroke="none"><path fill="#343a40" d="M 1.57,-1.57 Q 1.57,-1.57 1.77,-1.27 1.98,-0.98 2.09,-0.64 2.20,-0.29 2.19,0.05 2.18,0.41 2.05,0.75 1.93,1.09 1.70,1.37 1.48,1.65 1.18,1.84 0.87,2.04 0.52,2.12 0.18,2.21 -0.17,2.18 -0.53,2.15 -0.86,2.01 -1.19,1.87 -1.46,1.63 -1.73,1.39 -1.90,1.07 -2.08,0.76 -2.15,0.41 -2.21,0.05 -2.17,-0.29 -2.12,-0.65 -1.96,-0.97 -1.80,-1.29 -1.54,-1.54 -1.29,-1.80 -0.97,-1.96 -0.65,-2.12 -0.29,-2.17 0.06,-2.21 0.41,-2.15 0.76,-2.08 1.07,-1.90 1.39,-1.73 1.63,-1.46 1.87,-1.19 2.01,-0.86 2.15,-0.53 2.18,-0.17 2.21,0.18 2.12,0.52 2.03,0.87 1.84,1.18 1.65,1.48 1.37,1.70 1.09,1.93 0.75,2.05 0.41,2.18 0.05,2.19 -0.30,2.20 -0.64,2.09 -0.98,1.98 -1.27,1.77 -1.57,1.56 -1.57,1.57 -1.57,1.57 -1.73,1.35 -1.90,1.14 -2.01,0.90 -2.12,0.66 -2.16,0.39 -2.21,0.13 -2.20,-0.13 -2.18,-0.40 -2.10,-0.65 -2.02,-0.91 -1.88,-1.14 -1.74,-1.36 -1.55,-1.55 -1.36,-1.74 -1.14,-1.88 -0.91,-2.02 -0.65,-2.10 -0.40,-2.18 -0.13,-2.20 0.13,-2.21 0.39,-2.16 0.66,-2.12 0.90,-2.01 1.14,-1.90 1.35,-1.73 1.57,-1.57 1.57,-1.57 L 1.57,-1.57 Z"></path></g><g transform="translate(82.98640242657802 55.96197364141881) rotate(0 0 -0.721266575300433)" stroke="none"><path d="" stroke="#ffffff" stroke-width="0.5" fill="none"></path><path fill="#343a40" d="M 2.12,-0.66 Q 2.12,-0.66 2.15,-0.13 2.18,0.40 1.96,0.88 1.74,1.36 1.32,1.69 0.91,2.02 0.38,2.12 -0.13,2.21 -0.64,2.05 -1.14,1.90 -1.52,1.52 -1.90,1.14 -2.05,0.64 -2.21,0.13 -2.12,-0.38 -2.02,-0.91 -1.69,-1.32 -1.36,-1.74 -0.88,-1.96 -0.39,-2.18 0.13,-2.15 0.66,-2.11 1.11,-1.84 1.57,-1.56 1.84,-1.11 L 2.12,-0.66 Z"></path></g><g stroke-linecap="round"><g transform="translate(66.8341831980365 68.86613329911324) rotate(180.707313349537 6.842912605549145 -2.4813444014994275)"><path d="M0 0.33 C0.69 -0.55, 2.29 -4.62, 4.53 -4.95 C6.77 -5.29, 11.98 -2.2, 13.43 -1.67 M-0.66 0.02 C0.16 -0.79, 3.27 -3.82, 5.54 -4.25 C7.81 -4.68, 11.69 -2.79, 12.95 -2.55" stroke="#343a40" stroke-width="1" fill="none"></path></g></g><mask></mask><g stroke-linecap="round"><g transform="translate(63.35847123418171 136.3510609574696) rotate(0 19.63809829121965 25.795704881388247)"><path d="M0 0 C11.8 -1.4, 24.87 -2.96, 39.28 -2.58 M0 0 C13.95 -1.62, 26.32 -0.94, 39.28 -2.58 M39.28 -2.58 C40.5 10.36, 37.89 23.15, 38.71 54.17 M39.28 -2.58 C39.77 10.48, 38.97 21.81, 38.71 54.17" stroke="#343a40" stroke-width="2" fill="none"></path></g></g><mask></mask><g stroke-linecap="round"><g transform="translate(27.04417809560664 153.180034441948) rotate(0 31.157990386139318 20.478807952935767)"><path d="M0 0 C15.09 -1.98, 28.43 1.14, 62.32 -2.48 M0 0 C15.7 0.58, 32.02 -1.56, 62.32 -2.48 M62.32 -2.48 C60.82 9.93, 58.67 24.59, 57.9 43.44 M62.32 -2.48 C61.06 7.79, 59.61 18.96, 57.9 43.44" stroke="#343a40" stroke-width="2" fill="none"></path></g></g><mask></mask><g stroke-linecap="round"><g transform="translate(85.8193050466266 197.48631823065807) rotate(0 7.402623965815565 6.531727028660498)"><path d="M-0.47 0.24 C2.13 2.32, 12.75 10.8, 15.34 12.86 M0.28 -0.11 C2.88 2.01, 12.76 11.28, 15.18 13.45" stroke="#343a40" stroke-width="2" fill="none"></path></g></g><mask></mask><g stroke-linecap="round"><g transform="translate(102.3663468525674 189.64824579626475) rotate(0 7.402623965815565 0.8708969371550666)"><path d="M0.54 -0.21 C3.13 -0.04, 12.75 0.87, 15.07 1.26 M0.15 -0.79 C2.73 -0.59, 12.2 1.37, 14.77 1.71" stroke="#343a40" stroke-width="2" fill="none"></path></g></g><mask></mask><g stroke-linecap="round"><g transform="translate(66.24049454240685 144.70360694155625) rotate(0 24.55102582592542 -3.391918041740155)" fill-rule="evenodd"><path d="M1.47 1.12 L21.72 -16.75 L55.95 -14.83 L31.31 9.94 L-5.7 10.12 L0.57 1.89" stroke="none" stroke-width="0" fill="#ffffff" fill-rule="evenodd"></path><path d="M0 0 C6.9 -7.81, 18.63 -14.3, 21.64 -16.15 M0 0 C4.67 -4.08, 9.23 -8.07, 21.64 -16.15 M21.64 -16.15 C34.56 -17.17, 44.02 -18.18, 55.89 -16.8 M21.64 -16.15 C29.64 -15.88, 37.32 -17.15, 55.89 -16.8 M55.89 -16.8 C47.71 -8.12, 39.38 2.42, 33.27 10.01 M55.89 -16.8 C51.26 -11.17, 46.91 -4.52, 33.27 10.01 M33.27 10.01 C24.57 10.29, 10.94 8.78, -6.78 10.01 M33.27 10.01 C23.45 8.75, 12.94 9.94, -6.78 10.01 M-6.78 10.01 C-4.09 6.55, -1.67 4.23, 2.26 0.32 M-6.78 10.01 C-4.59 6.54, -1.38 4.48, 2.26 0.32 M2.26 0.32 C1.46 0.27, 0.6 0.29, 0 0 M2.26 0.32 C1.74 0.25, 0.95 0.09, 0 0" stroke="#343a40" stroke-width="1" fill="none"></path></g></g><mask></mask><g stroke-linecap="round"><g transform="translate(65.96173641023461 144.3950871064635) rotate(0 24.55102582592542 -3.391918041740155)" fill-rule="evenodd"><path d="M0 0 C0 0, 0 0, 0 0 M0 0 C0 0, 0 0, 0 0 M-3.54 10.17 C-1.64 4.46, 5.91 1.6, 14.83 -10.96 M-3.54 10.17 C4.18 2.67, 9.6 -6.06, 14.83 -10.96 M1.45 10.53 C9.49 4.82, 13.33 -4.06, 24.41 -15.88 M1.45 10.53 C7.52 4.36, 11.01 -2.09, 24.41 -15.88 M7.09 10.14 C14.03 -2.11, 25.3 -11.9, 30.05 -16.28 M7.09 10.14 C13.48 1.39, 20.89 -6.79, 30.05 -16.28 M12.08 10.5 C20.56 0.97, 31.34 -9.33, 35.04 -15.92 M12.08 10.5 C20.51 1.3, 27.64 -7.66, 35.04 -15.92 M17.72 10.1 C24.47 2.49, 31.13 -4.53, 40.68 -16.31 M17.72 10.1 C24.16 3.29, 27.91 -2.21, 40.68 -16.31 M22.71 10.46 C29.27 4.07, 36.44 -5.12, 46.32 -16.71 M22.71 10.46 C30.65 1.39, 37.27 -6.8, 46.32 -16.71 M28.35 10.07 C36.08 0.17, 45.96 -6.28, 51.31 -16.35 M28.35 10.07 C37.27 1.37, 45.21 -8.9, 51.31 -16.35 M-7.12 9.72 C-7.12 9.72, -7.12 9.72, -7.12 9.72 M-7.12 9.72 C-7.12 9.72, -7.12 9.72, -7.12 9.72 M-0.73 9.98 C-1.45 9.55, -2.09 9.12, -3.74 7.36 M-0.73 9.98 C-1.53 9.32, -2.07 8.81, -3.74 7.36 M5.67 10.24 C3.34 7.74, 1.8 6.86, -1.12 4.34 M5.67 10.24 C3.72 8.24, 0.73 6.17, -1.12 4.34 M11.32 9.85 C8.3 7.74, 6.76 4.54, 1.5 1.32 M11.32 9.85 C8.75 7.32, 5.29 5.01, 1.5 1.32 M17.71 10.11 C13.81 8.77, 10.76 4.42, 2.62 -3.01 M17.71 10.11 C11.25 5.66, 4.76 0.68, 2.62 -3.01 M23.36 9.71 C21.08 8.65, 14.46 3.87, 6 -5.38 M23.36 9.71 C17.66 4.72, 13.15 0.84, 6 -5.38 M29.75 9.98 C21.25 1.98, 13.94 -2.64, 9.38 -7.74 M29.75 9.98 C22.38 3.32, 14.99 -1.8, 9.38 -7.74 M34.64 8.92 C25.81 -0.28, 16.59 -6.7, 12.76 -10.1 M34.64 8.92 C28.53 2.17, 20.36 -3.14, 12.76 -10.1 M37.27 5.91 C32.64 2.36, 26.12 -4.59, 15.38 -13.12 M37.27 5.91 C32.36 1.18, 27.3 -1.93, 15.38 -13.12 M39.89 2.89 C32.71 -1.55, 26.56 -9.07, 18.76 -15.48 M39.89 2.89 C32.81 -3.7, 27.17 -9.04, 18.76 -15.48 M42.51 -0.13 C38.92 -5.81, 33.97 -8.44, 22.89 -17.19 M42.51 -0.13 C33.88 -6.96, 27.7 -13.26, 22.89 -17.19 M44.38 -3.81 C40.72 -9.17, 36.44 -11.82, 28.54 -17.58 M44.38 -3.81 C39.08 -7.01, 36.2 -10.77, 28.54 -17.58 M47.01 -6.83 C42.57 -10.06, 37.1 -13.66, 34.93 -17.32 M47.01 -6.83 C43.99 -10.21, 40.55 -13.19, 34.93 -17.32 M49.63 -9.84 C47.93 -11.93, 43 -14.28, 40.58 -17.72 M49.63 -9.84 C47.95 -11.12, 45.62 -13.58, 40.58 -17.72 M52.26 -12.86 C50.15 -14.32, 47.15 -17.55, 46.22 -18.11 M52.26 -12.86 C51.01 -14.39, 49.18 -15.63, 46.22 -18.11 M54.88 -15.88 C53.87 -16.64, 53.22 -17.03, 52.62 -17.85 M54.88 -15.88 C54.15 -16.43, 53.6 -17.19, 52.62 -17.85" stroke="#868e96" stroke-width="0.5" fill="none"></path><path d="M0 0 C9.04 -6.84, 13.6 -11.42, 21.64 -16.15 M0 0 C8.16 -7.01, 17.43 -13.13, 21.64 -16.15 M21.64 -16.15 C31.39 -17.71, 42.99 -16.6, 55.89 -16.8 M21.64 -16.15 C30.55 -17.26, 40.21 -16.7, 55.89 -16.8 M55.89 -16.8 C48.11 -8.2, 36.89 1.72, 33.27 10.01 M55.89 -16.8 C50.01 -7.8, 41.79 0.11, 33.27 10.01 M33.27 10.01 C16.22 8.45, 2.08 8.33, -6.78 10.01 M33.27 10.01 C25.55 9.94, 16.27 10.4, -6.78 10.01 M-6.78 10.01 C-3.78 6.63, -0.76 4.33, 2.26 0.32 M-6.78 10.01 C-3.83 7.33, -0.47 4.39, 2.26 0.32 M2.26 0.32 C1.34 0.38, 0.42 0.13, 0 0 M2.26 0.32 C1.68 0.22, 1.34 0.25, 0 0" stroke="#343a40" stroke-width="1" fill="none"></path></g></g><mask></mask><g stroke-linecap="round"><g transform="translate(99.88091682763161 153.44020188443574) rotate(0 15.182871234453842 -32.788541070150586)" fill-rule="evenodd"><path d="M0.35 -0.23 L7.06 -35.75 L30.9 -67.12 L25 -26.15 L-1.29 -0.75" stroke="none" stroke-width="0" fill="#ffffff" fill-rule="evenodd"></path><path d="M0 0 C-0.55 -8.59, 4.16 -16.8, 5.49 -35.21 M0 0 C2.08 -9.94, 3.37 -18.3, 5.49 -35.21 M5.49 -35.21 C10.92 -43.24, 18.15 -50.83, 30.37 -65.58 M5.49 -35.21 C14.46 -45.08, 22.63 -54.68, 30.37 -65.58 M30.37 -65.58 C27.27 -59.24, 27.6 -48.33, 23.26 -26.81 M30.37 -65.58 C28.2 -53.62, 27.37 -42.17, 23.26 -26.81 M23.26 -26.81 C15.33 -20.68, 7.36 -9.63, 0 0 M23.26 -26.81 C18.43 -20.39, 14.02 -15.38, 0 0 M0 0 C0 0, 0 0, 0 0 M0 0 C0 0, 0 0, 0 0" stroke="#343a40" stroke-width="2" fill="none"></path></g></g><mask></mask><g stroke-linecap="round"><g transform="translate(57.950603057674016 96.46227352070491) rotate(0 19.98915165816163 16.714033950343037)"><path d="M-0.19 1.09 C2.27 4.39, 7.36 13.62, 13.99 18.86 C20.63 24.09, 35.18 30.18, 39.61 32.49 M-1.76 0.61 C0.61 4.17, 6.24 14.73, 12.97 20.19 C19.71 25.64, 33.95 31.11, 38.65 33.32" stroke="#343a40" stroke-width="2" fill="none"></path></g></g><mask></mask><g stroke-linecap="round"><g transform="translate(31.275837819375738 73.27109603102417) rotate(0 31.1351057826879 33.11374200127011)"><path d="M-0.14 -0.4 C2.15 6.09, 4.54 30.02, 13.57 40 C22.59 49.97, 45.8 54.99, 53.99 59.45 C62.17 63.91, 61.35 65.8, 62.66 66.77 M-1.67 -1.65 C0.45 5.47, 3.22 30.7, 12.42 41.04 C21.63 51.39, 45.09 56.49, 53.54 60.4 C61.99 64.31, 61.4 63.71, 63.12 64.5" stroke="#343a40" stroke-width="2" fill="none"></path></g></g><mask></mask></svg>